<svg width="61" height="61" viewBox="0 0 61 61" fill="none" xmlns="http://www.w3.org/2000/svg">
<g opacity="0.7">
<g clip-path="url(#clip0_2003_1987)">
<path d="M39.0524 33.9139H21.447L20.8095 36.0289H25.5035L26.3939 38.9446H34.1055L35.0015 36.0289H39.69L39.0524 33.9139ZM24.3217 22.0413C23.674 22.9385 23.4075 24.0573 23.5806 25.1518C23.7538 26.2464 24.3525 27.227 25.2451 27.8782L29.461 30.9541C29.5722 31.0346 29.6665 31.1364 29.7383 31.2537C29.8102 31.371 29.8582 31.5014 29.8797 31.6375C29.9012 31.7735 29.8956 31.9124 29.8634 32.0463C29.8311 32.1802 29.7728 32.3063 29.6918 32.4174L30.3239 32.8758L32.55 29.7944C33.0669 29.0844 33.346 28.2278 33.347 27.3481C33.3451 27.1243 33.3267 26.901 33.292 26.6799C33.1237 25.5871 32.5307 24.606 31.6431 23.952L27.4328 20.8817C27.3168 20.8037 27.218 20.7028 27.1424 20.585C27.0668 20.4672 27.016 20.3352 26.993 20.1969C26.9875 20.1417 26.9875 20.0865 26.993 20.0313C26.9945 19.8113 27.0636 19.5972 27.1909 19.4183L26.5588 18.9545L24.3217 22.0413ZM26.8611 9.68278C26.1145 10.7126 25.7123 11.9539 25.7123 13.228C25.7107 13.5516 25.7365 13.8752 25.7893 14.1944C25.911 14.9811 26.1869 15.7357 26.6011 16.4144C27.0153 17.0931 27.5596 17.6825 28.2023 18.1482L33.5009 22.0137C33.8446 22.2631 34.1356 22.5784 34.3573 22.9414C34.579 23.3044 34.727 23.7079 34.7926 24.1287C34.8208 24.3003 34.8355 24.4739 34.8366 24.6478C34.8339 25.3275 34.6164 25.9888 34.2155 26.5364L34.7266 26.9063L38.8985 21.1136C40.8465 18.4006 40.244 14.6163 37.5518 12.6482L31.1594 7.98196C30.9615 7.83797 30.794 7.65595 30.6667 7.44647C30.5393 7.23698 30.4545 7.00418 30.4174 6.76156C30.377 6.51924 30.3854 6.27125 30.4421 6.03224C30.4987 5.79322 30.6024 5.56804 30.7472 5.36998L30.2415 5L26.8611 9.68278ZM16.044 40.7117H20.8699C21.8609 40.6456 22.8374 40.9773 23.5852 41.6339C23.8175 41.8651 24.0003 42.1417 24.1222 42.4465C24.2441 42.7514 24.3027 43.0781 24.2942 43.4065V43.4396C24.3073 43.9065 24.1855 44.3671 23.9436 44.766C23.7017 45.1648 23.35 45.4847 22.9311 45.6871C24.1294 46.151 24.8714 46.8523 24.8714 48.2549C24.8714 50.1656 23.3324 51.1209 20.9853 51.1209H16.0385L16.044 40.7117ZM20.3972 44.9306C21.4031 44.9306 22.0462 44.5993 22.0462 43.8262C22.0462 43.1359 21.4965 42.7218 20.5456 42.7218H18.2701V44.9306H20.3972ZM21.0018 49.133C22.0132 49.133 22.6178 48.774 22.6178 48.0285V47.9954C22.6178 47.2996 22.1011 46.891 20.9304 46.891H18.2701V49.1882L21.0018 49.133ZM25.8937 40.7117H30.7197C31.7106 40.6456 32.6872 40.9773 33.435 41.6339C33.6663 41.8656 33.848 42.1424 33.969 42.4472C34.09 42.752 34.1477 43.0785 34.1385 43.4065V43.4396C34.1515 43.9065 34.0298 44.3671 33.7879 44.766C33.546 45.1648 33.1943 45.4847 32.7754 45.6871C33.9791 46.151 34.7211 46.8523 34.7211 48.2549C34.7211 50.1656 33.1766 51.1209 30.8296 51.1209H25.8937V40.7117ZM30.2305 44.9306C31.2363 44.9306 31.8794 44.5993 31.8794 43.8262C31.8794 43.1359 31.3298 42.7218 30.3844 42.7218H28.0923V44.9306H30.2305ZM30.8351 49.133C31.8465 49.133 32.4511 48.774 32.4511 48.0285V47.9954C32.4511 47.2996 31.9344 46.891 30.7636 46.891H28.0923V49.1882L30.8351 49.133ZM35.6885 40.7117H40.5145C41.5054 40.6456 42.482 40.9773 43.2298 41.6339C43.4621 41.8651 43.6448 42.1417 43.7668 42.4465C43.8887 42.7514 43.9473 43.0781 43.9388 43.4065V43.4396C43.9518 43.9065 43.83 44.3671 43.5882 44.766C43.3463 45.1648 42.9946 45.4847 42.5757 45.6871C43.7794 46.151 44.5214 46.8523 44.5214 48.2549C44.5214 50.1656 42.9769 51.1209 40.6299 51.1209H35.683L35.6885 40.7117ZM40.0253 44.9306C41.0311 44.9306 41.6742 44.5993 41.6742 43.8262C41.6742 43.1359 41.1246 42.7218 40.1792 42.7218H37.9146V44.9306H40.0253ZM40.6299 49.133C41.6413 49.133 42.2514 48.774 42.2514 48.0285V47.9954C42.2514 47.2996 41.7292 46.891 40.5584 46.891H37.9146V49.1882L40.6299 49.133ZM16 55.5828L16.1814 55.373C16.3027 55.4915 16.4464 55.5843 16.6041 55.646C16.7618 55.7076 16.9302 55.7369 17.0993 55.7319C17.4511 55.7319 17.6874 55.5497 17.6874 55.3012C17.6874 55.0637 17.5555 54.9312 17.0004 54.8152C16.4452 54.6993 16.1209 54.495 16.1209 54.0753C16.1297 53.9715 16.1593 53.8706 16.2079 53.7786C16.2565 53.6866 16.3231 53.6054 16.4037 53.5399C16.4843 53.4744 16.5772 53.426 16.6769 53.3975C16.7766 53.3689 16.881 53.3609 16.9839 53.374C17.3194 53.3635 17.6474 53.4753 17.9073 53.6887L17.7314 53.9096C17.5224 53.7128 17.2483 53.6007 16.9619 53.5949C16.6211 53.5949 16.4122 53.7771 16.4122 54.009C16.4122 54.252 16.5497 54.39 17.1268 54.5115C17.7039 54.633 17.9787 54.8429 17.9787 55.2349C17.9787 55.6767 17.605 55.9639 17.0828 55.9639C16.6867 55.9807 16.2991 55.8443 16 55.5828ZM18.5119 55.4558V54.3127H18.2426V54.0642H18.5119V53.512H18.7977V54.0642H19.4133V54.3127H18.7977V55.4172C18.7977 55.6491 18.9296 55.7319 19.1275 55.7319C19.225 55.7338 19.3214 55.711 19.4078 55.6657V55.9086C19.3017 55.9663 19.1822 55.9949 19.0616 55.9915C18.9886 56.001 18.9144 55.9938 18.8445 55.9705C18.7747 55.9472 18.711 55.9083 18.6581 55.8568C18.6053 55.8054 18.5647 55.7426 18.5394 55.6731C18.5141 55.6037 18.5047 55.5294 18.5119 55.4558ZM19.6662 55.4061C19.6662 55.0085 20.0015 54.7932 20.4962 54.7932C20.697 54.7908 20.8971 54.8187 21.0898 54.876V54.8097C21.0898 54.4674 20.8754 54.2906 20.5401 54.2906C20.3358 54.2936 20.1349 54.3427 19.952 54.4342L19.8476 54.1968C20.0691 54.0911 20.3114 54.0364 20.5566 54.0366C20.7847 54.0221 21.0094 54.0974 21.1832 54.2465C21.3206 54.3961 21.3921 54.5955 21.3811 54.7987V55.9583H21.0898V55.6712C21.0076 55.776 20.9022 55.86 20.7819 55.9165C20.6617 55.9731 20.5299 56.0007 20.3972 55.997C20.0289 55.997 19.6662 55.8037 19.6662 55.4061ZM21.0953 55.2515V55.0693C20.917 55.0153 20.7318 54.9874 20.5456 54.9864C20.1829 54.9864 19.996 55.1411 19.996 55.3785C19.996 55.6215 20.2213 55.7595 20.4852 55.7595C20.6319 55.7678 20.7763 55.72 20.8894 55.6258C21.0026 55.5316 21.0761 55.3979 21.0953 55.2515ZM21.8703 54.0642H22.1616V54.5612C22.2175 54.3974 22.3237 54.2556 22.465 54.1564C22.6062 54.0571 22.7752 54.0055 22.9476 54.009V54.3127C22.8384 54.3118 22.7302 54.3344 22.6304 54.3791C22.5306 54.4237 22.4415 54.4893 22.3691 54.5715C22.2967 54.6536 22.2427 54.7504 22.2107 54.8554C22.1787 54.9603 22.1694 55.0709 22.1836 55.1797V55.9362H21.8923L21.8703 54.0642ZM23.3763 55.4558V54.3127H23.107V54.0642H23.3763V53.512H23.6951V54.0642H24.3107V54.3127H23.6951V55.4172C23.6951 55.6491 23.827 55.7319 24.0194 55.7319C24.1169 55.7338 24.2133 55.711 24.2997 55.6657V55.9086C24.1936 55.9663 24.0741 55.9949 23.9535 55.9915C23.8784 56.0057 23.8011 56.0021 23.7277 55.9809C23.6543 55.9597 23.5868 55.9216 23.5307 55.8695C23.4747 55.8175 23.4315 55.7529 23.4047 55.6811C23.3778 55.6093 23.3681 55.5321 23.3763 55.4558ZM25.5365 53.3961H25.8608L26.6083 55.5276L27.3283 53.385H27.5702L28.2902 55.5276L29.0432 53.3961H29.351L28.4166 55.9749H28.1638L27.4438 53.8931L26.7237 55.9749H26.4764L25.5365 53.3961ZM29.7413 53.3408H30.0711V53.6501H29.7413V53.3408ZM29.7413 54.0642H30.0326V55.9583H29.7413V54.0642ZM30.7032 55.4558V54.3127H30.4339V54.0642H30.7032V53.512H30.989V54.0642H31.6046V54.3127H30.989V55.4172C30.989 55.6491 31.1209 55.7319 31.3188 55.7319C31.4161 55.7325 31.5123 55.7098 31.5991 55.6657V55.9086C31.4909 55.9663 31.3698 55.9948 31.2473 55.9915C31.1746 56.0011 31.1005 55.994 31.0309 55.9707C30.9613 55.9474 30.8978 55.9084 30.8454 55.8568C30.7929 55.8052 30.7529 55.7423 30.7283 55.6728C30.7036 55.6033 30.695 55.5291 30.7032 55.4558ZM32.0004 53.2856H32.2917V54.39C32.3586 54.2734 32.4558 54.1774 32.573 54.1122C32.6902 54.047 32.8229 54.0151 32.9568 54.0201C33.0569 54.0134 33.1572 54.0285 33.251 54.0643C33.3448 54.1001 33.4298 54.1558 33.5002 54.2276C33.5707 54.2994 33.6249 54.3856 33.6591 54.4803C33.6934 54.5751 33.7069 54.6761 33.6988 54.7766V55.9528H33.4075V54.8484C33.4142 54.7742 33.4047 54.6994 33.3794 54.6293C33.3542 54.5592 33.3139 54.4956 33.2615 54.4429C33.209 54.3902 33.1457 54.3497 33.0759 54.3243C33.0061 54.299 32.9317 54.2894 32.8578 54.2962C32.7791 54.2911 32.7002 54.3032 32.6265 54.3316C32.5528 54.3599 32.486 54.4039 32.4307 54.4605C32.3754 54.517 32.3329 54.5849 32.3061 54.6595C32.2793 54.734 32.2687 54.8135 32.2752 54.8926V55.997H31.9839L32.0004 53.2856ZM35.9524 53.6611H35.0729V53.3961H37.1341V53.6611H36.2547V55.9583H35.9524V53.6611ZM37.5299 54.0642H37.8157V54.5612C37.8733 54.3974 37.9807 54.256 38.1228 54.1569C38.2648 54.0578 38.4343 54.006 38.6072 54.009V54.3127C38.4978 54.3119 38.3894 54.3346 38.2894 54.3791C38.1894 54.4237 38.1 54.4892 38.0272 54.5713C37.9543 54.6533 37.8998 54.75 37.8671 54.855C37.8344 54.9599 37.8244 55.0706 37.8377 55.1797V55.9362H37.5518L37.5299 54.0642ZM38.904 55.2515V54.0642H39.1898V55.1687C39.184 55.2427 39.1943 55.317 39.2198 55.3867C39.2454 55.4563 39.2857 55.5196 39.338 55.572C39.3902 55.6245 39.4531 55.665 39.5225 55.6907C39.5918 55.7164 39.6658 55.7267 39.7395 55.7209C39.8182 55.7259 39.8971 55.7138 39.9708 55.6855C40.0445 55.6571 40.1113 55.6132 40.1666 55.5566C40.2219 55.5 40.2644 55.4321 40.2912 55.3576C40.318 55.283 40.3286 55.2035 40.3221 55.1245V54.0201H40.6079V55.9142H40.3221V55.5828C40.2543 55.6986 40.1568 55.794 40.0399 55.8591C39.9229 55.9242 39.7907 55.9565 39.657 55.9528C39.5608 55.9604 39.4641 55.948 39.373 55.9162C39.2818 55.8843 39.1982 55.8339 39.1275 55.768C39.0567 55.7021 39.0003 55.6222 38.9619 55.5333C38.9234 55.4444 38.9037 55.3484 38.904 55.2515ZM40.9707 55.7154L41.1136 55.5166C41.3076 55.663 41.5417 55.7459 41.7842 55.754C42.0205 55.754 42.1854 55.638 42.1854 55.4558C42.1854 55.2625 41.9601 55.1908 41.7017 55.119C41.4434 55.0472 41.0641 54.9367 41.0641 54.5668C41.0641 54.2409 41.339 54.0145 41.7237 54.0145C41.9711 54.0201 42.2123 54.0918 42.4218 54.2244L42.2898 54.4342C42.1251 54.3273 41.9359 54.2646 41.7402 54.252C41.5148 54.252 41.3664 54.368 41.3664 54.5281C41.3664 54.7103 41.6083 54.7766 41.8666 54.8539C42.125 54.9312 42.4877 55.0582 42.4877 55.4061C42.4877 55.7651 42.1854 55.9583 41.8007 55.9583C41.505 55.9708 41.2134 55.8854 40.9707 55.7154ZM42.9879 55.4558V54.3127H42.7131V54.0642H42.9879V53.512H43.2737V54.0642H43.8893V54.3127H43.2737V55.4172C43.2737 55.6491 43.4056 55.7319 43.598 55.7319C43.697 55.733 43.7953 55.7098 43.8838 55.6657V55.9086C43.7754 55.9656 43.6544 55.9941 43.5321 55.9915C43.4593 56.0011 43.3853 55.994 43.3156 55.9707C43.246 55.9474 43.1825 55.9084 43.1301 55.8568C43.0777 55.8052 43.0376 55.7423 43.013 55.6728C42.9883 55.6033 42.9798 55.5291 42.9879 55.4558ZM44.2851 55.8037L44.4005 55.6712C44.4705 55.7374 44.5627 55.7748 44.6588 55.7761C44.7358 55.7761 44.7853 55.743 44.7853 55.6933C44.7853 55.6436 44.7523 55.616 44.6094 55.5773C44.4665 55.5386 44.3181 55.4834 44.3181 55.3122C44.32 55.2744 44.3297 55.2374 44.3466 55.2035C44.3634 55.1697 44.387 55.1396 44.4158 55.1153C44.4447 55.0909 44.4782 55.0728 44.5144 55.0621C44.5505 55.0513 44.5885 55.0481 44.6259 55.0527C44.7435 55.0505 44.8581 55.0896 44.9502 55.1631L44.8512 55.3067C44.7849 55.2546 44.7044 55.2238 44.6204 55.2184C44.5489 55.2184 44.5104 55.257 44.5104 55.2957C44.5104 55.3509 44.5489 55.373 44.6973 55.4116C44.8457 55.4503 44.9721 55.5221 44.9721 55.6712C44.9721 55.8424 44.8402 55.9418 44.6534 55.9418C44.5179 55.9429 44.3867 55.8938 44.2851 55.8037ZM45.1315 55.0748H45.3349L45.5658 55.4448L45.7966 55.0748H46V55.9528H45.8131V55.4006L45.5658 55.7761L45.3239 55.4061V55.9583H45.1315V55.0748Z" fill="white"/>
</g>
</g>
<defs>
<clipPath id="clip0_2003_1987">
<rect width="30" height="51" fill="white" transform="translate(16 5)"/>
</clipPath>
</defs>
</svg>
