<svg width="35" height="35" viewBox="0 0 35 35" fill="none" xmlns="http://www.w3.org/2000/svg">
<circle opacity="0.25" cx="17.5" cy="17.5" r="17.5" fill="#9BDD01"/>
<g clip-path="url(#clip0_330_4152)">
<path d="M24.5916 21.0085L22.4983 18.9152C21.7507 18.1676 20.4798 18.4667 20.1807 19.4385C19.9565 20.1114 19.2089 20.4852 18.536 20.3356C17.0408 19.9618 15.0223 18.0181 14.6485 16.4481C14.4242 15.7752 14.8727 15.0276 15.5456 14.8034C16.5175 14.5043 16.8165 13.2334 16.0689 12.4858L13.9756 10.3925C13.3775 9.86917 12.4804 9.86917 11.9571 10.3925L10.5366 11.8129C9.11619 13.3082 10.6862 17.2705 14.1999 20.7842C17.7136 24.298 21.676 25.9427 23.1712 24.4475L24.5916 23.027C25.115 22.4289 25.115 21.5318 24.5916 21.0085Z" fill="#9BDD01"/>
</g>
<defs>
<clipPath id="clip0_330_4152">
<rect width="15" height="15" fill="white" transform="translate(10 10)"/>
</clipPath>
</defs>
</svg>
