<svg width="53" height="53" viewBox="0 0 53 53" fill="none" xmlns="http://www.w3.org/2000/svg">
<path d="M9.59238 0.846814C11.6495 1.39801 13.0582 3.5703 12.3048 5.65225L5.79066 23.6504C5.33356 23.2738 4.75632 23.0579 4.15248 23.0579C3.1746 23.0384 2.12291 23.0417 1.17991 23.0998L4.8373 3.64305C5.19377 1.74717 6.99155 0.605854 8.81357 0.719145C9.07374 0.735385 9.3353 0.777956 9.59238 0.846814ZM8.45271 4.15501C7.97808 4.15501 7.59332 4.53967 7.59332 5.0143C7.59332 5.48894 7.97808 5.87369 8.45271 5.87369C8.92731 5.87369 9.31208 5.4889 9.31208 5.0143C9.31208 4.5397 8.92731 4.15501 8.45271 4.15501ZM28.554 10.2411C30.6923 11.1723 31.9938 13.1805 32.6562 15.0398L33.3695 17.044H23.0033C22.7133 16.2579 22.3114 15.5786 21.11 14.8804L12.711 9.57976L13.9212 6.23628C14.1469 5.61223 14.2388 4.98543 14.2249 4.37487L28.554 10.2411ZM34.2289 18.7626C35.6463 18.7626 36.648 19.9629 36.7986 21.2435L36.7792 21.1359L38.3401 27.358H49.7017C51.1151 27.358 52.2831 28.5211 52.2831 29.9345V35.9552C52.2831 37.3686 51.1151 38.5298 49.7017 38.5298H20.4812C19.0677 38.5298 17.868 37.3708 17.8998 35.9349V29.9345C17.9006 29.8257 17.9225 29.7181 17.9634 29.6171L21.4009 21.0217C21.5861 20.5592 21.7967 20.0549 22.1764 19.6C22.5561 19.1452 23.1864 18.7625 23.9136 18.7625L34.2289 18.7626ZM32.5202 22.2019H32.5105H29.934V29.0785H33.8868C34.4544 29.0793 34.8673 28.5401 34.7177 27.9926L33.3413 22.8413C33.2426 22.4679 32.9064 22.2064 32.5202 22.2019ZM28.215 22.2019H25.4556C25.1098 22.2017 24.7977 22.4087 24.6633 22.7272L21.4088 30.4616C21.363 30.5675 21.3389 30.6818 21.3383 30.7972V34.2365C21.34 34.7084 21.7223 35.0906 22.1943 35.0925H27.3523C27.6397 35.0934 27.9089 34.9505 28.069 34.7115L28.2151 34.4916L28.215 22.2019ZM4.15248 24.7767C4.42532 24.7767 4.68198 24.9062 4.84399 25.1257L12.5767 35.4349C13.0025 36.0006 12.5994 36.8097 11.8919 36.8113H6.73395C3.41618 36.8113 0.721684 34.115 0.721684 30.7972V25.6393C0.719967 25.1647 1.1031 24.7785 1.5777 24.7766L4.15248 24.7767ZM47.9957 30.7839C47.5132 30.7774 47.1206 31.1708 47.1262 31.6533V34.2365C47.1003 35.4083 48.8713 35.4083 48.845 34.2365V31.6533C48.8515 31.1787 48.4703 30.7894 47.9957 30.7839ZM44.5565 30.7839C44.074 30.7774 43.6814 31.1708 43.6871 31.6533V34.2365C43.6611 35.4073 45.4311 35.4073 45.4058 34.2365V31.6533C45.4123 31.1787 45.0311 30.7894 44.5565 30.7839ZM41.1241 30.7839C40.6396 30.7741 40.2439 31.1687 40.2496 31.6533V34.2365C40.2756 35.3569 41.9432 35.3569 41.9683 34.2365V31.6533C41.9749 31.1806 41.5967 30.7922 41.1241 30.7839ZM46.2635 40.2487C49.5813 40.2487 52.2842 42.9466 52.2842 46.2643C52.2842 49.5821 49.5813 52.2766 46.2635 52.2766H19.6246C16.3068 52.2766 13.6123 49.5821 13.6123 46.2643C13.6123 42.9466 16.3068 40.2487 19.6246 40.2487H46.2635ZM44.5431 43.6879C43.1294 43.6878 41.9684 44.8507 41.9683 46.2643C41.9683 47.678 43.1294 48.8459 44.5431 48.8459C45.9568 48.8458 47.1262 47.678 47.1262 46.2643C47.1262 44.8507 45.9567 43.6879 44.5431 43.6879ZM36.8104 43.6879C35.3967 43.6879 34.2356 44.8507 34.2356 46.2643C34.2356 47.678 35.3967 48.8458 36.8104 48.8459C38.2241 48.8459 39.3936 47.678 39.3936 46.2643C39.3936 44.8507 38.2241 43.6878 36.8104 43.6879ZM29.0777 43.6879C27.664 43.6878 26.503 44.8507 26.5029 46.2643C26.5029 47.678 27.664 48.8459 29.0777 48.8459C30.4914 48.8459 31.6525 47.678 31.6525 46.2643C31.6524 44.8507 30.4914 43.6878 29.0777 43.6879ZM21.345 43.6879C19.9313 43.6878 18.7618 44.8507 18.7618 46.2643C18.7618 47.678 19.9313 48.8459 21.345 48.8459C22.7587 48.8459 23.9198 47.678 23.9198 46.2643C23.9197 44.8507 22.7587 43.6878 21.345 43.6879Z" fill="#9BDD01"/>
</svg>
