<svg width="35" height="35" viewBox="0 0 35 35" fill="none" xmlns="http://www.w3.org/2000/svg">
<circle opacity="0.25" cx="17.5" cy="17.5" r="17.5" fill="#9BDD01"/>
<path d="M24.8583 13.1788L20.0059 18L24.8583 22.8212C24.946 22.6379 24.9993 22.4352 24.9993 22.2187V13.7812C24.9993 13.5648 24.946 13.3621 24.8583 13.1788Z" fill="#9BDD01"/>
<path d="M23.5947 12.375H10.4072C10.1907 12.375 9.98803 12.4282 9.80469 12.5159L16.0067 18.6867C16.555 19.235 17.4468 19.235 17.9952 18.6867L24.1971 12.5159C24.0138 12.4282 23.8111 12.375 23.5947 12.375Z" fill="#9BDD01"/>
<path d="M9.14094 13.1788C9.05322 13.3621 9 13.5648 9 13.7812V22.2187C9 22.4352 9.05322 22.6379 9.14094 22.8212L13.9934 18L9.14094 13.1788Z" fill="#9BDD01"/>
<path d="M19.3447 18.6628L18.658 19.3495C17.7443 20.2632 16.2575 20.2632 15.3438 19.3495L14.6572 18.6628L9.80469 23.4841C9.98803 23.5718 10.1907 23.625 10.4072 23.625H23.5947C23.8111 23.625 24.0138 23.5718 24.1971 23.4841L19.3447 18.6628Z" fill="#9BDD01"/>
</svg>
