<svg width="35" height="35" viewBox="0 0 35 35" fill="none" xmlns="http://www.w3.org/2000/svg">
<circle opacity="0.25" cx="17.5" cy="17.5" r="17.5" fill="#9BDD01"/>
<g clip-path="url(#clip0_330_4185)">
<path d="M17.5 9C13.9852 9 11.125 11.8801 11.125 15.421C11.125 20.4523 16.9008 25.6472 17.1465 25.8654C17.2478 25.9554 17.3739 26 17.5 26C17.6261 26 17.7522 25.9554 17.8535 25.8661C18.0992 25.6472 23.875 20.4523 23.875 15.421C23.875 11.8801 21.0147 9 17.5 9ZM17.5 18.9167C15.5471 18.9167 13.9583 17.3279 13.9583 15.375C13.9583 13.4221 15.5471 11.8333 17.5 11.8333C19.4529 11.8333 21.0417 13.4221 21.0417 15.375C21.0417 17.3279 19.4529 18.9167 17.5 18.9167Z" fill="#9BDD01"/>
</g>
<defs>
<clipPath id="clip0_330_4185">
<rect width="17" height="17" fill="white" transform="translate(9 9)"/>
</clipPath>
</defs>
</svg>
