<svg width="26" height="26" viewBox="0 0 26 26" fill="none" xmlns="http://www.w3.org/2000/svg">
<g clip-path="url(#clip0_2003_1937)">
<path d="M7.22524 5.31152C6.06573 5.31152 5.30762 6.07283 5.30762 7.07346C5.30762 8.05199 6.04314 8.83501 7.18074 8.83501H7.20275C8.38494 8.83501 9.12066 8.05199 9.12066 7.07346C9.09856 6.07283 8.38494 5.31152 7.22524 5.31152V5.31152Z" fill="#9BDD01"/>
<path d="M5.50586 10.2241H8.89559V20.4211H5.50586V10.2241Z" fill="#9BDD01"/>
<path d="M17.2171 9.9873C15.3885 9.9873 14.1623 11.7054 14.1623 11.7054V10.2266H10.7725V20.4236H14.1621V14.7292C14.1621 14.4244 14.1842 14.12 14.2738 13.902C14.5188 13.2933 15.0765 12.6626 16.0129 12.6626C17.2395 12.6626 17.7301 13.5977 17.7301 14.9686V20.4236H21.1195V14.5769C21.1195 11.4448 19.4471 9.9873 17.2171 9.9873V9.9873Z" fill="#9BDD01"/>
</g>
<defs>
<clipPath id="clip0_2003_1937">
<rect width="16.8668" height="16.865" fill="white" transform="translate(4.78809 4.45898)"/>
</clipPath>
</defs>
</svg>
