<svg width="26" height="26" viewBox="0 0 26 26" fill="none" xmlns="http://www.w3.org/2000/svg">
<path d="M13.4119 24.8649C14.2174 24.8649 14.9491 24.4545 15.3693 23.7669C18.3138 18.9495 21.8237 12.6005 21.8237 9.71151C21.8237 5.07327 18.0502 1.2998 13.4119 1.2998C8.77359 1.2998 5.00012 5.07327 5.00012 9.71151C5.00012 12.6005 8.51003 18.9495 11.4545 23.7669C11.8747 24.4545 12.6064 24.8649 13.4119 24.8649ZM10.0308 9.13395C10.0308 7.26972 11.5476 5.75302 13.4119 5.75302C15.2762 5.75302 16.7929 7.26972 16.7929 9.13395C16.7929 10.9982 15.2762 12.5149 13.4119 12.5149C11.5476 12.5149 10.0308 10.9983 10.0308 9.13395Z" fill="#9BDD01"/>
</svg>
