<svg width="572" height="484" viewBox="0 0 572 484" fill="none" xmlns="http://www.w3.org/2000/svg">
<path d="M18.5 396L1.49463 263.5C29.4946 323.5 72.9946 403.5 288.995 410C440.495 403.5 533.495 340 556.995 273V460.373C492.495 471.373 393.995 486.5 279.995 483C112.845 477.868 43 428 18.5 396Z" fill="url(#paint0_radial_2001_2021)"/>
<path d="M480.183 134.655C370.846 71.1152 192.986 71.1152 82.9336 134.654C-27.1341 198.2 -27.7141 301.223 81.6233 364.763C190.975 428.312 368.835 428.312 478.903 364.765C588.954 301.226 589.534 198.203 480.183 134.655Z" fill="#F5F9FF"/>
<path d="M368.09 134.997C366.203 133.908 363.175 133.908 361.3 134.997L255.407 196.536C253.532 197.625 253.527 199.389 255.415 200.478L434.382 303.805C436.27 304.894 439.313 304.886 441.188 303.795L547.081 242.257C548.956 241.167 548.947 239.413 547.059 238.323L368.09 134.997Z" fill="#E3EBF6"/>
<path d="M365.708 136.689C363.88 135.633 360.946 135.633 359.13 136.689L256.545 196.305C254.728 197.361 254.723 199.068 256.551 200.124L429.928 300.224C431.757 301.28 434.705 301.271 436.521 300.216L539.107 240.599C540.923 239.544 540.913 237.844 539.085 236.789L365.708 136.689Z" fill="#96AAFF"/>
<path d="M365.771 128.192C363.946 127.137 361.016 127.137 359.203 128.192L256.783 187.712C254.969 188.766 254.964 190.472 256.79 191.525L429.888 291.463C431.713 292.517 434.657 292.508 436.471 291.455L538.891 231.936C540.705 230.881 540.694 229.186 538.869 228.131L365.771 128.192Z" fill="white"/>
<path d="M374.315 135.482L526.166 223.152L528.565 221.648L376.715 133.978L374.315 135.482Z" fill="#F0F8FF"/>
<path d="M537.462 101.089C540.193 102.666 542.397 106.484 542.388 109.622L542.047 229.991L362.359 126.248L362.7 5.88072C362.709 2.74245 364.928 1.47827 367.659 3.0552L537.462 101.089Z" fill="white"/>
<path d="M255.422 189.614C255.419 190.306 255.875 190.997 256.79 191.526L429.888 291.464C431.712 292.518 434.657 292.509 436.471 291.455L538.891 231.936C538.997 231.874 539.078 231.803 539.172 231.736C539.288 231.654 539.412 231.574 539.509 231.487C539.654 231.356 539.776 231.221 539.878 231.08C539.896 231.055 539.912 231.03 539.928 231.005C540.023 230.864 540.1 230.719 540.151 230.572C540.157 230.556 540.16 230.54 540.166 230.523C540.215 230.365 540.246 230.206 540.246 230.046L540.224 237.625C540.224 237.639 540.224 237.653 540.223 237.666C540.221 237.755 540.211 237.843 540.193 237.931C540.181 237.988 540.162 238.046 540.144 238.103C540.139 238.12 540.136 238.136 540.13 238.153C540.125 238.166 540.124 238.179 540.119 238.192C540.085 238.281 540.045 238.368 539.995 238.455C539.97 238.499 539.937 238.542 539.908 238.585C539.891 238.61 539.876 238.636 539.858 238.661C539.841 238.685 539.828 238.709 539.81 238.733C539.726 238.839 539.63 238.942 539.521 239.043C539.511 239.051 539.498 239.058 539.489 239.067C539.392 239.154 539.268 239.233 539.152 239.316C539.075 239.371 539.014 239.43 538.928 239.481C538.909 239.492 538.889 239.504 538.87 239.515L436.45 299.034C434.636 300.089 431.693 300.097 429.868 299.043L256.77 199.105C255.854 198.576 255.4 197.885 255.402 197.193L255.422 189.614Z" fill="#ADBBFE"/>
<path d="M355.445 209.375C354.525 208.844 353.06 208.852 352.161 209.375L330.677 221.859C329.777 222.382 329.767 223.23 330.688 223.762L369.263 245.968C370.168 246.491 371.648 246.491 372.548 245.968L394.032 233.484C394.932 232.961 394.927 232.104 394.021 231.581L355.445 209.375ZM495.263 224.601C494.828 224.349 494.825 223.939 495.258 223.688L502.403 219.536C502.836 219.284 503.544 219.284 503.98 219.536L511.172 223.688C511.607 223.939 511.611 224.349 511.177 224.601L504.032 228.754C503.599 229.006 502.891 229.006 502.455 228.754L495.263 224.601ZM521.522 229.664C521.958 229.915 521.959 230.325 521.527 230.577L514.381 234.73C513.949 234.982 513.24 234.982 512.805 234.73L505.613 230.578C505.177 230.326 505.175 229.916 505.609 229.665L512.754 225.513C513.187 225.261 513.895 225.261 514.331 225.513L521.522 229.664ZM511.238 235.639C511.674 235.891 511.676 236.301 511.243 236.552L504.098 240.704C503.665 240.956 502.957 240.956 502.522 240.704L488.81 232.788C488.374 232.536 488.373 232.126 488.805 231.874L495.951 227.722C496.383 227.471 497.091 227.471 497.528 227.722L511.238 235.639ZM500.956 241.615C501.392 241.867 501.394 242.277 500.961 242.528L493.815 246.68C493.383 246.932 492.675 246.932 492.24 246.68L485.048 242.528C484.611 242.277 484.609 241.867 485.043 241.615L492.188 237.463C492.621 237.212 493.329 237.212 493.765 237.463L500.956 241.615ZM481.888 240.704L474.696 236.552C474.261 236.301 474.257 235.891 474.691 235.639L481.836 231.487C482.269 231.236 482.977 231.236 483.412 231.487L490.604 235.639C491.039 235.891 491.041 236.301 490.609 236.552L483.463 240.704C483.032 240.956 482.324 240.956 481.888 240.704ZM404.441 207.904C404.006 207.653 404.003 207.243 404.436 206.991L411.582 202.839C412.014 202.587 412.722 202.587 413.158 202.839L420.351 206.991C420.785 207.243 420.788 207.653 420.355 207.904L413.21 212.056C412.777 212.308 412.069 212.308 411.633 212.056L404.441 207.904ZM339.386 184.072C339.821 184.323 339.828 184.731 339.395 184.982L332.245 189.138C331.813 189.39 331.109 189.387 330.673 189.136L323.481 184.984C323.045 184.732 323.039 184.325 323.472 184.073L330.622 179.917C331.054 179.666 331.758 179.668 332.194 179.92L339.386 184.072ZM363.028 159.258C362.595 159.51 361.887 159.51 361.452 159.258L354.26 155.106C353.824 154.854 353.821 154.445 354.255 154.193L361.4 150.041C361.833 149.789 362.541 149.789 362.977 150.041L370.169 154.193C370.605 154.445 370.607 154.854 370.174 155.106L363.028 159.258ZM343.908 149.129C343.473 148.877 343.471 148.468 343.903 148.216L351.049 144.064C351.481 143.812 352.189 143.812 352.625 144.064L359.817 148.216C360.252 148.468 360.255 148.877 359.822 149.129L352.677 153.281C352.244 153.533 351.536 153.533 351.101 153.281L343.908 149.129ZM354.192 143.153C353.757 142.902 353.754 142.492 354.187 142.24L361.332 138.088C361.765 137.837 362.473 137.837 362.908 138.088L376.624 146.008C377.059 146.259 377.058 146.667 376.624 146.918L369.479 151.07C369.047 151.322 368.343 151.324 367.907 151.073L354.192 143.153ZM371.062 152.894C370.626 152.642 370.628 152.235 371.062 151.983L378.207 147.831C378.64 147.58 379.343 147.577 379.778 147.829L386.97 151.981C387.405 152.233 387.408 152.642 386.975 152.894L379.83 157.046C379.397 157.298 378.689 157.298 378.254 157.046L371.062 152.894ZM381.413 158.87C380.977 158.618 380.975 158.208 381.408 157.957L388.553 153.805C388.986 153.553 389.694 153.553 390.13 153.805L397.322 157.957C397.757 158.208 397.759 158.618 397.327 158.87L390.182 163.022C389.749 163.273 389.041 163.273 388.606 163.022L381.413 158.87ZM380.518 160.167C380.953 160.419 380.956 160.829 380.522 161.081L373.377 165.233C372.945 165.484 372.236 165.484 371.8 165.233L364.608 161.081C364.172 160.829 364.171 160.419 364.603 160.167L371.749 156.015C372.181 155.764 372.889 155.764 373.326 156.015L380.518 160.167ZM382.152 171.21L374.96 167.058C374.519 166.804 374.523 166.396 374.955 166.144L382.1 161.992C382.533 161.741 383.236 161.738 383.676 161.992L390.868 166.144C391.303 166.396 391.301 166.804 390.868 167.055L383.723 171.207C383.29 171.458 382.587 171.461 382.152 171.21ZM367.986 165.755C368.419 165.503 369.127 165.503 369.563 165.755L376.755 169.907C377.191 170.159 377.194 170.568 376.76 170.82L369.615 174.972C369.182 175.224 368.474 175.224 368.038 174.972L360.846 170.82C360.409 170.568 360.407 170.159 360.841 169.907L367.986 165.755ZM391.762 164.846C391.326 164.594 391.324 164.184 391.757 163.932L398.903 159.78C399.335 159.529 400.043 159.529 400.48 159.78L407.672 163.932C408.108 164.184 408.109 164.594 407.676 164.846L400.531 168.998C400.099 169.249 399.39 169.249 398.955 168.998L391.762 164.846ZM350.495 164.846C350.06 164.594 350.061 164.186 350.495 163.935L357.64 159.783C358.073 159.531 358.776 159.529 359.211 159.78L366.403 163.932C366.838 164.184 366.842 164.594 366.408 164.846L359.263 168.998C358.83 169.249 358.122 169.249 357.687 168.998L350.495 164.846ZM333.624 155.105C333.189 154.853 333.187 154.443 333.62 154.192L340.765 150.04C341.198 149.788 341.906 149.788 342.342 150.04L356.058 157.959C356.493 158.211 356.492 158.618 356.058 158.87L348.913 163.022C348.481 163.273 347.777 163.276 347.341 163.024L333.624 155.105ZM323.342 161.082C322.906 160.83 322.905 160.42 323.337 160.169L330.483 156.017C330.915 155.765 331.623 155.765 332.058 156.017L347.901 165.163C348.337 165.415 348.334 165.822 347.901 166.074L340.755 170.226C340.323 170.477 339.619 170.48 339.183 170.228L323.342 161.082ZM342.338 172.048C341.902 171.797 341.905 171.389 342.338 171.138L349.484 166.986C349.916 166.734 350.62 166.732 351.056 166.983L358.253 171.139C358.689 171.391 358.686 171.798 358.253 172.05L351.107 176.202C350.675 176.453 349.971 176.456 349.535 176.204L342.338 172.048ZM318.684 172.12C319.119 172.372 319.127 172.779 318.694 173.031L311.544 177.187C311.111 177.438 310.408 177.436 309.972 177.184L302.78 173.032C302.345 172.78 302.338 172.373 302.77 172.121L309.92 167.966C310.353 167.714 311.056 167.717 311.492 167.968L318.684 172.12ZM313.063 167.054C312.627 166.802 312.621 166.395 313.054 166.143L320.199 161.991C320.632 161.74 321.34 161.74 321.776 161.991L342.879 174.175C343.315 174.427 343.312 174.834 342.879 175.086L335.733 179.238C335.301 179.49 334.602 179.49 334.166 179.238L313.063 167.054ZM402.113 170.821C401.677 170.57 401.675 170.16 402.108 169.908L409.253 165.756C409.686 165.505 410.394 165.505 410.83 165.756L418.022 169.908C418.458 170.16 418.46 170.57 418.027 170.821L410.882 174.975C410.449 175.226 409.741 175.226 409.305 174.975L402.113 170.821ZM401.219 172.119C401.654 172.371 401.652 172.778 401.219 173.03L394.074 177.182C393.641 177.433 392.938 177.436 392.503 177.184L385.306 173.029C384.871 172.777 384.873 172.369 385.306 172.118L392.451 167.966C392.884 167.714 393.587 167.712 394.023 167.963L401.219 172.119ZM412.464 176.797C412.027 176.545 412.025 176.136 412.459 175.884L419.604 171.731C420.037 171.479 420.745 171.479 421.18 171.731L428.372 175.883C428.807 176.134 428.809 176.544 428.377 176.796L421.231 180.948C420.799 181.2 420.09 181.2 419.656 180.948L412.464 176.797ZM378.388 180.949L371.196 176.797C370.76 176.545 370.758 176.136 371.191 175.884L378.337 171.732C378.769 171.48 379.478 171.48 379.914 171.732L387.106 175.884C387.542 176.136 387.544 176.545 387.11 176.797L379.965 180.949C379.533 181.201 378.824 181.201 378.388 180.949ZM361.458 182.177C361.025 182.429 360.322 182.431 359.881 182.177L352.689 178.025C352.254 177.774 352.255 177.366 352.689 177.115L359.834 172.963C360.267 172.711 360.97 172.709 361.405 172.96L368.597 177.112C369.037 177.366 369.036 177.774 368.602 178.025L361.458 182.177ZM411.57 178.095C412.005 178.346 412.003 178.754 411.57 179.005L404.424 183.158C403.992 183.409 403.288 183.412 402.853 183.16L395.657 179.004C395.222 178.753 395.224 178.345 395.657 178.094L402.802 173.942C403.234 173.69 403.938 173.688 404.374 173.939L411.57 178.095ZM337.32 181.059C336.885 180.808 336.883 180.404 337.315 180.151L344.46 175.999C344.893 175.747 345.596 175.745 346.031 175.997L353.228 180.152C353.664 180.404 353.662 180.811 353.229 181.063L346.084 185.215C345.652 185.467 344.953 185.467 344.517 185.215L337.32 181.059ZM422.814 182.773C422.379 182.521 422.377 182.111 422.809 181.86L429.955 177.707C430.387 177.455 431.095 177.455 431.532 177.707L438.724 181.859C439.159 182.11 439.161 182.52 438.728 182.772L431.583 186.925C431.151 187.177 430.442 187.177 430.007 186.925L422.814 182.773ZM363.04 184.001C362.605 183.749 362.602 183.34 363.035 183.088L370.18 178.935C370.613 178.683 371.321 178.683 371.756 178.935L378.948 183.087C379.383 183.338 379.386 183.748 378.953 184L371.807 188.153C371.375 188.405 370.667 188.405 370.23 188.153L363.04 184.001ZM421.915 184.068C422.355 184.322 422.353 184.73 421.92 184.981L414.775 189.133C414.342 189.385 413.639 189.387 413.199 189.133L406.006 184.981C405.571 184.73 405.573 184.322 406.006 184.071L413.151 179.919C413.584 179.667 414.287 179.665 414.723 179.916L421.915 184.068ZM363.58 186.127C364.015 186.378 364.014 186.786 363.58 187.038L356.435 191.191C356.002 191.442 355.304 191.442 354.867 191.191L347.671 187.035C347.236 186.783 347.233 186.38 347.666 186.128L354.811 181.976C355.244 181.724 355.947 181.722 356.382 181.974L363.58 186.127ZM433.165 188.749C432.73 188.497 432.727 188.087 433.16 187.836L440.305 183.684C440.738 183.432 441.446 183.432 441.881 183.684L449.073 187.836C449.508 188.087 449.51 188.497 449.078 188.749L441.933 192.901C441.5 193.152 440.792 193.152 440.357 192.901L433.165 188.749ZM399.038 183.684C399.471 183.432 400.179 183.432 400.614 183.684L407.806 187.836C408.241 188.087 408.244 188.497 407.811 188.749L400.665 192.901C400.233 193.152 399.525 193.152 399.09 192.901L391.898 188.747C391.463 188.496 391.46 188.086 391.893 187.834L399.038 183.684ZM382.158 194.129C381.725 194.381 381.017 194.381 380.581 194.129L373.389 189.977C372.953 189.725 372.952 189.315 373.384 189.064L380.53 184.912C380.962 184.66 381.67 184.66 382.105 184.912L389.297 189.064C389.732 189.315 389.735 189.725 389.302 189.977L382.158 194.129ZM423.549 195.11L416.357 190.958C415.922 190.707 415.919 190.297 416.352 190.045L423.497 185.893C423.93 185.642 424.638 185.642 425.073 185.893L432.265 190.045C432.705 190.299 432.702 190.707 432.27 190.958L425.124 195.11C424.692 195.362 423.99 195.364 423.549 195.11ZM351.838 191.261C352.274 191.513 352.28 191.92 351.848 192.172L344.698 196.328C344.265 196.579 343.562 196.577 343.126 196.325L333.831 190.959C333.391 190.705 333.388 190.3 333.821 190.049L340.971 185.893C341.404 185.642 342.102 185.642 342.543 185.896L351.838 191.261ZM358.021 193.011C357.585 192.759 357.583 192.354 358.016 192.103L365.162 187.951C365.594 187.699 366.298 187.697 366.734 187.948L373.926 192.1C374.366 192.354 374.363 192.762 373.931 193.013L366.785 197.165C366.353 197.417 365.654 197.417 365.213 197.163L358.021 193.011ZM443.514 194.724C443.075 194.47 443.077 194.063 443.51 193.811L450.655 189.658C451.087 189.407 451.791 189.404 452.23 189.658L459.423 193.81C459.859 194.062 459.855 194.469 459.423 194.721L452.277 198.873C451.845 199.124 451.141 199.127 450.706 198.875L443.514 194.724ZM409.388 189.659C409.82 189.408 410.528 189.408 410.963 189.659L418.155 193.811C418.591 194.063 418.594 194.473 418.16 194.724L411.015 198.876C410.582 199.128 409.874 199.128 409.439 198.876L402.247 194.724C401.812 194.473 401.808 194.063 402.242 193.811L409.388 189.659ZM392.509 200.105C392.076 200.356 391.368 200.356 390.932 200.105L383.74 195.953C383.305 195.701 383.301 195.291 383.735 195.04L390.88 190.888C391.313 190.636 392.021 190.636 392.457 190.888L399.649 195.04C400.085 195.291 400.088 195.701 399.654 195.953L392.509 200.105ZM442.616 196.02C443.052 196.271 443.053 196.681 442.62 196.933L435.475 201.085C435.042 201.336 434.334 201.336 433.899 201.085L426.707 196.933C426.271 196.681 426.269 196.271 426.703 196.02L433.848 191.868C434.28 191.616 434.989 191.616 435.425 191.868L442.616 196.02ZM368.372 198.987C367.936 198.735 367.93 198.328 368.362 198.076L375.508 193.924C375.94 193.672 376.648 193.672 377.083 193.924L384.275 198.076C384.712 198.328 384.714 198.737 384.28 198.989L377.135 203.141C376.702 203.393 375.999 203.39 375.563 203.139L368.372 198.987ZM453.86 200.698C453.424 200.446 453.426 200.039 453.86 199.787L461.005 195.635C461.438 195.383 462.141 195.381 462.576 195.633L469.773 199.788C470.208 200.04 470.207 200.447 469.773 200.699L462.628 204.852C462.195 205.104 461.492 205.106 461.056 204.855L453.86 200.698ZM419.791 204.853L412.599 200.701C412.163 200.45 412.16 200.04 412.594 199.788L419.739 195.636C420.172 195.385 420.88 195.385 421.316 195.636L428.508 199.788C428.943 200.04 428.947 200.45 428.513 200.701L421.368 204.853C420.934 205.104 420.226 205.104 419.791 204.853ZM402.859 206.08C402.427 206.332 401.719 206.332 401.282 206.08L394.09 201.928C393.654 201.677 393.653 201.267 394.086 201.015L401.231 196.863C401.663 196.612 402.372 196.612 402.807 196.863L409.999 201.015C410.434 201.267 410.437 201.677 410.003 201.928L402.859 206.08ZM397.837 215.093C397.405 215.344 396.697 215.344 396.26 215.093L389.068 210.941C388.633 210.689 388.631 210.279 389.064 210.028L396.209 205.876C396.642 205.624 397.35 205.624 397.785 205.876L404.977 210.028C405.413 210.279 405.415 210.689 404.981 210.941L397.837 215.093ZM452.966 201.996C453.402 202.247 453.405 202.657 452.971 202.909L445.826 207.061C445.393 207.312 444.685 207.312 444.25 207.061L437.058 202.909C436.622 202.657 436.621 202.247 437.053 201.996L444.198 197.842C444.631 197.591 445.339 197.591 445.774 197.842L452.966 201.996ZM378.721 204.962C378.286 204.711 378.279 204.303 378.712 204.052L385.857 199.9C386.29 199.648 386.998 199.648 387.433 199.9L394.625 204.052C395.061 204.303 395.062 204.713 394.63 204.965L387.484 209.117C387.052 209.369 386.348 209.366 385.912 209.114L378.721 204.962ZM464.211 206.674C463.775 206.422 463.777 206.015 464.211 205.763L471.356 201.611C471.789 201.359 472.492 201.357 472.928 201.608L480.125 205.764C480.561 206.016 480.559 206.423 480.125 206.675L472.98 210.827C472.547 211.078 471.844 211.081 471.408 210.829L464.211 206.674ZM430.089 201.611C430.521 201.359 431.225 201.357 431.665 201.611L438.857 205.763C439.293 206.015 439.29 206.422 438.857 206.674L431.711 210.826C431.279 211.077 430.575 211.08 430.14 210.828L422.948 206.676C422.509 206.422 422.51 206.015 422.944 205.763L430.089 201.611ZM454.601 213.038L447.409 208.886C446.974 208.634 446.971 208.224 447.404 207.973L454.549 203.821C454.982 203.569 455.69 203.569 456.125 203.821L463.317 207.973C463.752 208.224 463.754 208.634 463.322 208.886L456.176 213.038C455.744 213.289 455.036 213.289 454.601 213.038ZM474.561 212.649C474.125 212.398 474.128 211.99 474.561 211.739L481.707 207.587C482.139 207.335 482.843 207.333 483.278 207.584L490.47 211.736C490.91 211.99 490.908 212.398 490.475 212.649L483.329 216.801C482.897 217.053 482.193 217.055 481.752 216.801L474.561 212.649ZM440.44 207.587C440.872 207.335 441.575 207.333 442.01 207.584L449.207 211.74C449.642 211.992 449.641 212.399 449.207 212.651L442.062 216.803C441.629 217.054 440.926 217.057 440.49 216.805L433.293 212.649C432.857 212.398 432.859 211.99 433.293 211.739L440.44 207.587ZM423.559 218.032C423.127 218.284 422.419 218.284 421.984 218.032L414.792 213.88C414.357 213.628 414.354 213.219 414.787 212.967L421.932 208.815C422.365 208.563 423.073 208.563 423.509 208.815L430.701 212.967C431.137 213.219 431.14 213.628 430.706 213.88L423.559 218.032ZM464.95 219.013L457.758 214.861C457.323 214.61 457.321 214.2 457.753 213.948L464.899 209.796C465.331 209.545 466.039 209.545 466.474 209.796L473.666 213.948C474.101 214.2 474.104 214.61 473.671 214.861L466.526 219.013C466.095 219.265 465.386 219.265 464.95 219.013ZM399.423 216.914C398.987 216.662 398.981 216.255 399.413 216.003L406.558 211.851C406.991 211.6 407.699 211.6 408.134 211.851L415.326 216.003C415.761 216.255 415.765 216.665 415.331 216.916L408.186 221.068C407.753 221.32 407.05 221.318 406.614 221.066L399.423 216.914ZM450.842 222.781L443.645 218.625C443.209 218.374 443.211 217.966 443.645 217.714L450.79 213.561C451.223 213.31 451.926 213.307 452.362 213.559L459.559 217.714C459.995 217.966 459.993 218.374 459.559 218.625L452.414 222.777C451.98 223.029 451.278 223.032 450.842 222.781ZM433.905 224.005C433.473 224.257 432.769 224.259 432.333 224.008L425.141 219.856C424.706 219.604 424.704 219.194 425.136 218.943L432.282 214.791C432.714 214.539 433.422 214.539 433.857 214.791L441.049 218.943C441.486 219.194 441.483 219.602 441.049 219.853L433.905 224.005ZM409.773 222.89C409.338 222.638 409.331 222.231 409.764 221.979L416.909 217.827C417.342 217.575 418.05 217.575 418.486 217.827L425.678 221.979C426.113 222.231 426.115 222.641 425.683 222.892L418.538 227.044C418.105 227.296 417.402 227.293 416.965 227.042L409.773 222.89ZM435.487 225.828C435.051 225.576 435.053 225.169 435.487 224.917L442.632 220.765C443.065 220.514 443.768 220.511 444.203 220.763L451.4 224.918C451.835 225.17 451.834 225.578 451.4 225.829L444.255 229.981C443.822 230.233 443.119 230.235 442.684 229.984L435.487 225.828ZM411.711 225.828C412.147 226.08 412.153 226.487 411.721 226.739L404.57 230.894C404.138 231.146 403.435 231.143 402.998 230.892L346.284 198.148C345.849 197.896 345.842 197.489 346.275 197.237L353.425 193.082C353.857 192.83 354.561 192.832 354.997 193.084L411.711 225.828ZM436.033 228.868L428.888 233.02C428.456 233.272 427.752 233.269 427.316 233.018L420.124 228.866C419.689 228.614 419.682 228.207 420.114 227.955L427.26 223.803C427.692 223.551 428.401 223.551 428.835 223.803L436.027 227.955C436.464 228.207 436.466 228.618 436.033 228.868ZM494.368 225.9C494.803 226.151 494.805 226.561 494.372 226.813L487.227 230.965C486.795 231.217 486.086 231.217 485.652 230.965L478.459 226.813C478.024 226.561 478.022 226.151 478.455 225.9L485.6 221.748C486.033 221.496 486.741 221.496 487.177 221.748L494.368 225.9ZM461.188 228.753L453.996 224.601C453.561 224.349 453.562 223.942 453.996 223.69L461.141 219.538C461.573 219.287 462.277 219.284 462.713 219.536L469.905 223.688C470.346 223.942 470.344 224.349 469.91 224.601L462.765 228.753C462.331 229.005 461.627 229.008 461.188 228.753ZM464.345 230.577C463.91 230.325 463.908 229.915 464.34 229.664L471.486 225.512C471.918 225.26 472.626 225.26 473.061 225.512L480.253 229.664C480.693 229.918 480.691 230.325 480.258 230.577L473.113 234.729C472.68 234.98 471.977 234.983 471.537 234.729L464.345 230.577ZM452.983 226.741C453.416 226.489 454.119 226.487 454.554 226.739L461.751 230.894C462.186 231.146 462.185 231.553 461.751 231.805L454.605 235.958C454.173 236.21 453.47 236.212 453.033 235.961L445.837 231.805C445.4 231.553 445.403 231.146 445.837 230.894L452.983 226.741ZM464.905 232.714L472.101 236.87C472.538 237.122 472.535 237.529 472.101 237.781L464.956 241.933C464.524 242.184 463.82 242.187 463.384 241.935L456.187 237.78C455.752 237.528 455.755 237.12 456.187 236.869L463.333 232.717C463.766 232.465 464.47 232.463 464.905 232.714ZM490.672 247.591C491.108 247.843 491.11 248.252 490.677 248.504L483.532 252.656C483.099 252.908 482.391 252.908 481.956 252.656L466.539 243.755C466.104 243.504 466.105 243.096 466.539 242.845L473.684 238.693C474.117 238.441 474.82 238.439 475.255 238.69L490.672 247.591ZM480.389 253.567C480.825 253.818 480.826 254.228 480.393 254.48L473.29 258.608C472.858 258.859 472.149 258.859 471.714 258.608L451.207 246.768C450.772 246.516 450.775 246.109 451.207 245.857L458.311 241.729C458.743 241.477 459.447 241.475 459.883 241.727L480.389 253.567ZM434.461 238.963C434.898 239.215 434.9 239.62 434.466 239.872L427.316 244.027C426.883 244.279 426.185 244.279 425.749 244.027L418.608 239.905C418.172 239.654 418.171 239.249 418.603 238.998L425.754 234.843C426.186 234.591 426.885 234.591 427.321 234.843L434.461 238.963ZM446.378 233.931C446.813 234.182 446.811 234.59 446.378 234.841L439.275 238.969C438.842 239.221 438.139 239.223 437.704 238.972C437.614 238.92 437.519 238.882 437.42 238.852L430.474 234.841C430.037 234.59 430.031 234.182 430.464 233.931L437.609 229.779C438.042 229.527 438.75 229.527 439.186 229.779L446.378 233.931ZM456.729 239.906C457.165 240.158 457.163 240.565 456.729 240.817L449.625 244.945C449.193 245.197 448.49 245.199 448.055 244.948L440.858 240.792C440.423 240.54 440.425 240.133 440.858 239.881L447.961 235.753C448.394 235.502 449.097 235.499 449.532 235.751L456.729 239.906ZM446.252 245.852C446.687 246.104 446.69 246.514 446.257 246.765L439.239 250.844C438.806 251.096 438.103 251.093 437.668 250.842L429.074 245.88C428.638 245.628 428.631 245.221 429.064 244.969L436.083 240.89C436.515 240.639 437.223 240.639 437.658 240.89L446.252 245.852ZM453.23 255.544C453.666 255.796 453.664 256.203 453.23 256.455L451.099 257.694C450.667 257.945 449.968 257.945 449.532 257.694L440.938 252.732C440.502 252.48 440.495 252.072 440.928 251.821L443.059 250.582C443.492 250.33 444.2 250.33 444.635 250.582L453.23 255.544ZM458.118 252.703C458.554 252.954 458.551 253.362 458.118 253.613L455.987 254.851C455.555 255.103 454.856 255.103 454.42 254.851L445.826 249.889C445.39 249.638 445.382 249.23 445.816 248.979L447.947 247.741C448.379 247.489 449.087 247.489 449.524 247.741L458.118 252.703ZM469.978 259.551C470.413 259.803 470.415 260.212 469.983 260.464L462.965 264.543C462.532 264.795 461.829 264.792 461.394 264.54L452.8 259.578C452.364 259.327 452.361 258.923 452.795 258.671L459.813 254.592C460.246 254.341 460.949 254.338 461.384 254.59L469.978 259.551ZM424.168 233.021C424.603 233.273 424.606 233.677 424.173 233.928L417.023 238.084C416.59 238.335 415.892 238.335 415.456 238.084L406.156 232.714C405.721 232.463 405.714 232.055 406.146 231.804L413.296 227.648C413.729 227.396 414.432 227.399 414.868 227.651L424.168 233.021ZM329.035 178.096C329.47 178.348 329.477 178.755 329.045 179.007L321.895 183.162C321.462 183.414 320.759 183.412 320.322 183.16L313.13 179.008C312.694 178.756 312.688 178.349 313.121 178.097L320.271 173.942C320.704 173.69 321.407 173.692 321.843 173.944L329.035 178.096ZM388.687 177.708C389.12 177.456 389.828 177.456 390.263 177.708L397.455 181.86C397.891 182.111 397.894 182.521 397.46 182.773L390.315 186.925C389.882 187.177 389.174 187.177 388.738 186.925L381.546 182.773C381.111 182.521 381.107 182.111 381.541 181.86L388.687 177.708ZM484.912 218.625C484.477 218.374 484.475 217.964 484.907 217.712L492.053 213.56C492.485 213.308 493.193 213.308 493.628 213.56L500.82 217.712C501.261 217.966 501.259 218.374 500.825 218.625L493.68 222.777C493.247 223.029 492.544 223.031 492.104 222.777L484.912 218.625Z" fill="#DFE9F7"/>
<path d="M370.928 14.4204L370.623 121.521L533.836 215.752L534.141 108.651L370.928 14.4204Z" fill="url(#paint1_linear_2001_2021)"/>
<path d="M370.623 121.521L370.633 119.909L533.847 214.14L533.836 215.752L370.623 121.521Z" fill="url(#paint2_linear_2001_2021)"/>
<path d="M366.573 2.57325C366.294 2.48458 366.022 2.42227 365.763 2.39591C365.739 2.39351 365.714 2.39111 365.69 2.38871C365.411 2.36714 365.145 2.38033 364.896 2.42946C364.883 2.43186 364.869 2.43545 364.856 2.43905C364.601 2.49417 364.36 2.58163 364.143 2.70865L368.124 0.332484C368.134 0.326493 368.142 0.321699 368.152 0.316906C368.232 0.271372 368.314 0.231832 368.4 0.195883C368.483 0.159935 368.571 0.129974 368.661 0.103612C368.718 0.0868366 368.779 0.074858 368.838 0.0628753C368.851 0.0604787 368.865 0.0556818 368.878 0.0532852C368.898 0.0496904 368.917 0.0436971 368.938 0.0401023C369.035 0.0233265 369.134 0.0113446 369.236 0.00535327C369.343 -0.000638085 369.452 -0.00183504 369.563 0.00295804C369.599 0.00415632 369.636 0.0113492 369.672 0.0137457C369.696 0.0161422 369.721 0.0185348 369.745 0.0209314C369.808 0.0269227 369.867 0.0293179 369.931 0.0401023C370.074 0.0616712 370.219 0.0928304 370.366 0.132373C370.428 0.149149 370.493 0.177908 370.555 0.198279C370.613 0.216253 370.67 0.236618 370.729 0.258187C370.802 0.284549 370.874 0.302527 370.948 0.333682C371.175 0.428345 371.406 0.542184 371.641 0.678786L541.443 98.7141C541.762 98.8987 542.071 99.118 542.373 99.3588C542.471 99.4367 542.562 99.5266 542.658 99.6092C542.804 99.7363 542.954 99.8549 543.096 99.9939C543.159 100.056 543.219 100.127 543.281 100.192C543.338 100.249 543.391 100.308 543.447 100.368C543.509 100.436 543.575 100.5 543.636 100.569C543.774 100.727 543.907 100.89 544.036 101.058C544.082 101.115 544.124 101.177 544.168 101.235C544.191 101.266 544.214 101.298 544.236 101.329C544.279 101.387 544.324 101.444 544.364 101.504C544.463 101.644 544.557 101.786 544.651 101.93C544.738 102.068 544.823 102.207 544.906 102.347C544.913 102.359 544.919 102.371 544.926 102.383C544.932 102.394 544.938 102.405 544.944 102.416C545.01 102.531 545.076 102.646 545.137 102.763C545.212 102.902 545.282 103.042 545.351 103.182C545.413 103.311 545.472 103.44 545.528 103.57C545.53 103.577 545.534 103.583 545.538 103.589C545.541 103.596 545.545 103.603 545.547 103.61C545.611 103.758 545.672 103.905 545.728 104.054C545.788 104.208 545.843 104.364 545.896 104.52C545.922 104.599 545.944 104.677 545.968 104.756C545.979 104.789 545.988 104.823 545.999 104.856C546.016 104.912 546.035 104.968 546.05 105.024C546.103 105.214 546.15 105.403 546.189 105.591C546.213 105.706 546.229 105.82 546.248 105.935C546.259 105.995 546.27 106.054 546.278 106.112C546.287 106.167 546.3 106.222 546.306 106.276C546.349 106.604 546.37 106.928 546.369 107.245L546.037 224.306C546.031 226.354 544.94 228.246 543.169 229.274L542.047 229.988L542.389 109.62C542.39 109.251 542.355 108.871 542.297 108.487C542.289 108.429 542.277 108.369 542.268 108.31C542.206 107.952 542.125 107.591 542.018 107.23C542.009 107.198 541.998 107.164 541.988 107.132C541.868 106.74 541.726 106.35 541.558 105.965C541.555 105.958 541.552 105.952 541.549 105.945C541.376 105.551 541.181 105.166 540.965 104.791C540.959 104.78 540.953 104.769 540.947 104.758C540.736 104.393 540.504 104.04 540.257 103.703C540.234 103.673 540.212 103.641 540.19 103.611C539.962 103.306 539.72 103.017 539.467 102.743C539.413 102.684 539.358 102.625 539.303 102.568C539.103 102.359 538.893 102.171 538.681 101.987C538.585 101.903 538.492 101.812 538.393 101.734C538.092 101.494 537.782 101.274 537.464 101.089L367.661 3.05376C367.349 2.87282 367.046 2.74102 366.748 2.63317C366.688 2.6116 366.631 2.59123 366.573 2.57325Z" fill="#ADBBFE"/>
<path d="M404.173 92.669L404.156 98.9982L397.199 94.9816L397.217 88.6523L404.173 92.669Z" fill="#F9CC38"/>
<path d="M404.156 98.9981L404.126 109.226L397.17 105.21L397.199 94.9814L404.156 98.9981Z" fill="#474EB8"/>
<path d="M443.958 92.8772L443.914 107.893L436.958 103.877L437 88.8618L443.958 92.8772Z" fill="#F9CC38"/>
<path d="M443.914 107.893L443.846 132.158L436.89 128.142L436.959 103.877L443.914 107.893Z" fill="#474EB8"/>
<path d="M398.802 53.678L398.794 56.6893L392.131 52.8428L392.14 49.8315L398.802 53.678Z" fill="white"/>
<path d="M398.821 47.2878L398.811 50.3003L392.149 46.4527L392.157 43.4414L398.821 47.2878Z" fill="white"/>
<path d="M417.446 87.8362L417.414 98.9334L410.458 94.9168L410.49 83.8208L417.446 87.8362Z" fill="#F9CC38"/>
<path d="M417.414 98.9336L417.363 116.869L410.407 112.853L410.458 94.917L417.414 98.9336Z" fill="#474EB8"/>
<path d="M430.644 109.107L430.6 124.511L423.653 120.5L423.696 105.096L430.644 109.107Z" fill="#474EB8"/>
<path d="M430.671 99.5721L430.644 109.107L423.696 105.096L423.724 95.5615L430.671 99.5721Z" fill="#F9CC38"/>
<path d="M416.154 57.5393C416.445 57.707 416.738 57.9958 416.951 58.3589L417.084 58.6189L417.181 58.9101L417.242 59.1809L417.269 59.4409C417.267 59.7776 417.143 60.0424 416.946 60.1551C416.733 60.2773 416.456 60.2605 416.154 60.0868C415.852 59.9118 415.577 59.6099 415.364 59.242C415.152 58.8945 415.046 58.4955 415.047 58.1588L415.065 57.9239L415.119 57.7202L415.235 57.5524L415.369 57.4458C415.574 57.3248 415.863 57.3715 416.154 57.5393Z" fill="#7EC8FF"/>
<path d="M429.896 65.4546C430.509 65.8081 431.004 66.6673 431.003 67.3719C431.001 68.0861 430.502 68.3712 429.889 68.0166L419.584 62.0671C418.971 61.7136 418.475 60.8545 418.476 60.1391C418.479 59.4345 418.977 59.1506 419.591 59.504L429.896 65.4546Z" fill="#7EC8FF"/>
<path d="M412.883 55.6326C413.505 55.9921 414.001 56.8501 413.998 57.5546C413.996 58.2688 413.498 58.554 412.876 58.1945L404.285 53.2349C403.663 52.8754 403.167 52.0174 403.17 51.3021C403.172 50.5975 403.671 50.3135 404.292 50.673L412.883 55.6326Z" fill="#7EC8FF"/>
<path d="M422.024 67.3111C422.646 67.6706 423.142 68.5286 423.14 69.2332C423.138 69.9473 422.639 70.2325 422.017 69.873L404.267 59.6254C403.645 59.2659 403.149 58.408 403.152 57.6926C403.154 56.988 403.653 56.704 404.274 57.0623L422.024 67.3111Z" fill="#7EC8FF"/>
<path d="M429.877 71.8444C430.49 72.1979 430.985 73.057 430.984 73.7616C430.982 74.4758 430.483 74.761 429.87 74.4063L425.784 72.0469C425.17 71.6934 424.675 70.8343 424.676 70.1201C424.679 69.4155 425.177 69.1315 425.791 69.485L429.877 71.8444Z" fill="#7EC8FF"/>
<path d="M392.113 59.2025C392.424 59.3823 392.672 59.8112 392.672 60.1587L392.536 107.851L453.39 142.984C453.692 143.159 453.94 143.588 453.939 143.936C453.938 144.293 453.689 144.436 453.387 144.261L391.973 108.804C391.671 108.629 391.423 108.2 391.424 107.843L391.561 59.5177C391.562 59.1714 391.811 59.0288 392.113 59.2025Z" fill="#7EC8FF"/>
<path d="M555.206 147.648L464.715 95.3628L464.544 155.751C464.538 157.754 465.958 160.201 467.701 161.208L555.024 211.665L555.206 147.648Z" fill="url(#paint3_linear_2001_2021)"/>
<path d="M462.19 89.6997L571.972 153.082L571.801 213.47C571.795 215.474 570.378 216.283 568.633 215.276L465.176 155.546C463.433 154.539 462.013 152.092 462.019 150.089L462.19 89.6997Z" fill="white"/>
<path d="M568.852 138.039C570.596 139.046 572.005 141.487 572 143.502L571.972 153.082L462.19 89.6998L462.218 80.1196C462.224 78.1041 463.652 77.3012 465.396 78.3078L568.852 138.039Z" fill="url(#paint4_linear_2001_2021)"/>
<path d="M469.271 89.3926C468.126 88.7312 467.2 87.1279 467.204 85.8122C467.208 84.5073 468.14 83.9764 469.285 84.6379C470.42 85.2933 471.346 86.8966 471.343 88.2004C471.338 89.5173 470.406 90.0481 469.271 89.3926Z" fill="#DFE9F7"/>
<path d="M477.526 94.1595C476.38 93.498 475.465 91.9007 475.468 90.585C475.472 89.2801 476.394 88.7433 477.539 89.4047C478.674 90.0602 479.6 91.6635 479.597 92.9672C479.593 94.2841 478.661 94.8149 477.526 94.1595Z" fill="#F9CC38"/>
<path d="M549.072 162.569C550.383 163.325 551.442 165.161 551.438 166.667C551.433 168.173 550.368 168.781 549.057 168.024L517.956 150.068C516.645 149.311 515.596 147.482 515.601 145.977C515.606 144.47 516.661 143.857 517.971 144.614L549.072 162.569Z" fill="#DFE9F7"/>
<path d="M559.64 157.388C560.951 158.144 562.01 159.979 562.005 161.484C562 162.991 560.934 163.598 559.624 162.841L517.988 138.802C516.677 138.046 515.629 136.217 515.632 134.712C515.637 133.205 516.693 132.592 518.002 133.349L559.64 157.388Z" fill="#DFE9F7"/>
<path d="M485.781 98.9254C484.646 98.2699 483.72 96.6666 483.723 95.3509C483.727 94.046 484.659 93.5152 485.794 94.1706C486.94 94.8321 487.855 96.4294 487.851 97.7331C487.848 99.05 486.926 99.5868 485.781 98.9254Z" fill="#7EC8FF"/>
<path d="M508.924 127.643C508.976 127.827 509.006 127.999 509.006 128.153L508.888 169.357C508.888 169.512 508.856 169.647 508.804 169.772C508.7 170.009 508.493 170.126 508.235 170.097C508.101 170.079 507.967 170.037 507.833 169.959L471.974 149.256C471.84 149.178 471.696 149.06 471.572 148.929C471.314 148.662 471.108 148.305 471.006 147.949C470.955 147.764 470.925 147.593 470.925 147.438L471.042 106.235C471.042 106.08 471.074 105.945 471.126 105.82C471.23 105.583 471.438 105.465 471.695 105.495C471.819 105.507 471.964 105.555 472.098 105.633L507.956 126.336C508.09 126.414 508.224 126.526 508.359 126.663C508.616 126.931 508.822 127.287 508.924 127.643ZM473.139 110.379L473.038 145.726L488.475 136.93L473.139 110.379ZM506.791 165.214L506.892 129.867L491.457 138.651L506.791 165.214ZM474.53 148.31L505.291 166.069L489.956 139.507L474.53 148.31ZM505.401 127.283L474.641 109.524L489.965 136.08L505.401 127.283Z" fill="#DFE9F7"/>
<path d="M549.027 178.79C550.338 179.546 551.397 181.382 551.392 182.887C551.387 184.393 550.322 185 549.011 184.243L517.91 166.287C516.599 165.531 515.551 163.701 515.554 162.195C515.559 160.689 516.615 160.075 517.924 160.832L549.027 178.79Z" fill="#DFE9F7"/>
<path d="M318.849 310.283L318.86 314.255C318.814 314.284 318.767 314.313 318.718 314.341L318.707 310.368C318.755 310.34 318.803 310.311 318.849 310.283Z" fill="url(#paint5_linear_2001_2021)"/>
<path d="M195.147 242.519C196.83 241.547 199.552 241.547 201.224 242.519L322.796 313.169C324.468 314.141 324.459 315.717 322.776 316.689L236.898 366.271C235.215 367.243 232.493 367.243 230.821 366.271L109.248 295.621C107.576 294.649 107.585 293.073 109.268 292.101L195.147 242.519Z" fill="#E3EBF6"/>
<path d="M193.685 242.232C195.334 241.281 198 241.281 199.639 242.232L318.727 311.439C320.364 312.39 320.356 313.935 318.707 314.887L234.583 363.456C232.934 364.407 230.268 364.407 228.629 363.456L109.541 294.249C107.903 293.297 107.912 291.752 109.561 290.801L193.685 242.232Z" fill="#96AAFF"/>
<path d="M193.685 237.714C195.334 236.762 198 236.762 199.639 237.714L318.727 306.92C320.364 307.871 320.356 309.417 318.707 310.369L234.583 358.937C232.934 359.889 230.268 359.889 228.629 358.937L109.541 289.731C107.903 288.779 107.912 287.235 109.561 286.282L193.685 237.714Z" fill="url(#paint6_linear_2001_2021)"/>
<path d="M319.949 308.632C319.95 308.781 319.922 308.93 319.876 309.077C319.872 309.088 319.871 309.1 319.867 309.112C319.82 309.249 319.749 309.384 319.66 309.517C319.646 309.537 319.634 309.558 319.621 309.577C319.531 309.702 319.419 309.823 319.291 309.94C319.224 310.001 319.141 310.058 319.064 310.116C318.95 310.202 318.843 310.29 318.708 310.367L234.584 358.936C234.322 359.087 234.026 359.207 233.72 359.31C233.614 359.345 233.506 359.378 233.397 359.409C233.274 359.442 233.15 359.474 233.023 359.501C232.845 359.537 232.667 359.57 232.483 359.592C232.448 359.596 232.415 359.604 232.381 359.607C232.144 359.632 231.904 359.644 231.664 359.647C231.629 359.647 231.595 359.648 231.56 359.648C231.324 359.646 231.089 359.633 230.858 359.609C230.824 359.606 230.789 359.602 230.756 359.598C230.527 359.57 230.302 359.531 230.083 359.482C230.041 359.473 229.999 359.463 229.958 359.453C229.744 359.399 229.535 359.337 229.336 359.263C229.318 359.257 229.3 359.251 229.284 359.245C229.054 359.156 228.835 359.054 228.633 358.937L109.541 289.731C109.135 289.494 108.829 289.221 108.625 288.93C108.421 288.639 108.319 288.329 108.318 288.019L108.329 291.991C108.331 292.61 108.739 293.23 109.552 293.703L228.64 362.909C228.838 363.025 229.052 363.126 229.276 363.213C229.282 363.215 229.286 363.216 229.291 363.217C229.308 363.224 229.326 363.229 229.343 363.235C229.487 363.289 229.634 363.339 229.786 363.382C229.844 363.398 229.905 363.41 229.965 363.425C230.007 363.435 230.049 363.445 230.092 363.455C230.137 363.466 230.18 363.478 230.226 363.487C230.363 363.515 230.501 363.538 230.642 363.557C230.683 363.563 230.725 363.566 230.766 363.571C230.8 363.575 230.832 363.578 230.866 363.581C230.927 363.587 230.987 363.595 231.05 363.6C231.186 363.611 231.324 363.618 231.461 363.621C231.497 363.622 231.533 363.62 231.568 363.62C231.604 363.62 231.639 363.619 231.674 363.619C231.746 363.618 231.816 363.62 231.888 363.617C232.042 363.611 232.197 363.6 232.35 363.584C232.363 363.583 232.378 363.58 232.391 363.578C232.426 363.574 232.459 363.568 232.495 363.564C232.623 363.548 232.751 363.533 232.876 363.509C232.93 363.499 232.98 363.482 233.033 363.471C233.161 363.444 233.283 363.412 233.407 363.379C233.48 363.358 233.558 363.347 233.629 363.324C233.666 363.312 233.696 363.292 233.731 363.28C234.038 363.177 234.332 363.058 234.595 362.906L318.719 314.337C318.774 314.306 318.81 314.269 318.861 314.237V314.252C318.943 314.2 319.002 314.141 319.074 314.086C319.152 314.027 319.235 313.971 319.303 313.909C319.319 313.894 319.34 313.883 319.354 313.869C319.447 313.779 319.53 313.687 319.602 313.593C319.614 313.578 319.621 313.562 319.632 313.545C319.646 313.526 319.658 313.505 319.671 313.486C319.703 313.438 319.737 313.391 319.764 313.343C319.807 313.265 319.842 313.185 319.871 313.105C319.874 313.097 319.875 313.089 319.877 313.081C319.881 313.069 319.883 313.057 319.886 313.045C319.905 312.987 319.923 312.928 319.934 312.868C319.95 312.789 319.958 312.708 319.959 312.629C319.959 312.619 319.959 312.61 319.959 312.6L319.949 308.632Z" fill="#ADBBFE"/>
<path d="M194.312 242.785L305.418 307.353L231.249 350.175L120.142 285.606L194.312 242.785Z" fill="#FFFEFF"/>
<path d="M147.169 259.243C147.169 259.153 147.185 259.062 147.214 258.972C147.216 258.965 147.217 258.958 147.22 258.95C147.249 258.867 147.294 258.784 147.347 258.703C147.355 258.691 147.362 258.679 147.37 258.668C147.425 258.591 147.494 258.518 147.571 258.447C147.612 258.409 147.664 258.375 147.711 258.339C147.781 258.287 147.845 258.234 147.928 258.186C148.162 258.05 148.436 257.953 148.722 257.881C148.759 257.871 148.794 257.862 148.831 257.854C149.118 257.791 149.418 257.755 149.72 257.754C149.731 257.754 149.741 257.754 149.752 257.754C150.067 257.755 150.381 257.791 150.679 257.86C150.691 257.863 150.704 257.866 150.718 257.869C151.019 257.942 151.303 258.048 151.548 258.191C152.04 258.477 152.288 258.853 152.289 259.23L152.283 257.245C152.282 256.868 152.034 256.491 151.542 256.205C151.419 256.134 151.286 256.072 151.147 256.017C151.046 255.978 150.942 255.944 150.835 255.913C150.794 255.902 150.752 255.894 150.711 255.884C150.697 255.881 150.685 255.878 150.672 255.875C150.637 255.866 150.602 255.856 150.567 255.849C150.483 255.832 150.399 255.818 150.313 255.806C150.232 255.795 150.15 255.786 150.067 255.78C149.985 255.773 149.902 255.769 149.818 255.767C149.794 255.767 149.768 255.768 149.744 255.767C149.734 255.767 149.723 255.767 149.713 255.767C149.662 255.767 149.611 255.766 149.561 255.768C149.468 255.771 149.374 255.779 149.282 255.788C149.175 255.799 149.069 255.813 148.965 255.833C148.917 255.842 148.872 255.857 148.824 255.867C148.786 255.876 148.75 255.885 148.714 255.895C148.645 255.912 148.575 255.925 148.509 255.945C148.297 256.011 148.099 256.096 147.921 256.2C147.891 256.218 147.861 256.235 147.834 256.253C147.785 256.284 147.749 256.32 147.705 256.353C147.657 256.39 147.605 256.425 147.563 256.463C147.554 256.471 147.541 256.479 147.532 256.487C147.474 256.541 147.424 256.597 147.38 256.655C147.373 256.665 147.369 256.674 147.362 256.683C147.354 256.695 147.347 256.707 147.339 256.719C147.319 256.748 147.298 256.777 147.28 256.808C147.254 256.856 147.232 256.904 147.215 256.953C147.213 256.958 147.213 256.962 147.211 256.967C147.209 256.974 147.208 256.981 147.205 256.988C147.194 257.024 147.182 257.061 147.175 257.097C147.166 257.144 147.161 257.193 147.16 257.242C147.16 257.249 147.16 257.254 147.16 257.259L147.169 259.243Z" fill="#ADBBFE"/>
<path d="M143.592 262.783L143.586 260.797C141.909 259.822 141.069 258.549 141.065 257.274L141.071 259.26C141.076 260.535 141.915 261.808 143.592 262.783Z" fill="#ADBBFE"/>
<path d="M183.943 251.157L139.092 277.051L139.098 279.037L183.948 253.143L183.943 251.157Z" fill="#ADBBFE"/>
<path d="M155.867 253.707L172.152 244.305L183.943 251.157L139.092 277.051L127.301 270.199L143.586 260.797C140.209 258.835 140.227 255.665 143.626 253.703C147.017 251.745 152.49 251.745 155.867 253.707ZM151.53 258.296C152.534 257.717 152.531 256.778 151.543 256.203C150.538 255.619 148.926 255.619 147.923 256.199C146.919 256.778 146.906 257.717 147.91 258.3C148.9 258.875 150.528 258.875 151.53 258.296Z" fill="#DFE9F7"/>
<path d="M139.092 277.051L139.098 279.037L127.307 272.185L127.301 270.199L139.092 277.051Z" fill="#ADBBFE"/>
<path d="M213.659 284.073C213.932 283.916 214.357 283.92 214.621 284.073C214.891 284.23 214.898 284.477 214.625 284.634L210.076 287.261C209.812 287.414 209.378 287.414 209.107 287.257C208.845 287.104 208.846 286.853 209.11 286.7L213.659 284.073Z" fill="#E3EBF6"/>
<path d="M229.102 272.804C229.366 272.651 229.8 272.651 230.071 272.808C230.333 272.961 230.332 273.212 230.068 273.364L227.688 274.738C227.415 274.896 226.981 274.896 226.719 274.742C226.449 274.585 226.451 274.334 226.722 274.177L229.102 272.804Z" fill="#E3EBF6"/>
<path d="M227.077 271.627C227.342 271.475 227.769 271.47 228.039 271.627C228.301 271.78 228.3 272.031 228.036 272.184L222.048 275.642C221.783 275.795 221.349 275.795 221.086 275.642C220.815 275.485 220.825 275.238 221.089 275.085L227.077 271.627Z" fill="#E3EBF6"/>
<path d="M224.833 275.268C225.105 275.111 225.539 275.111 225.81 275.268C226.072 275.421 226.071 275.673 225.798 275.83L208.043 286.08C207.779 286.233 207.345 286.233 207.082 286.08C206.811 285.923 206.813 285.672 207.077 285.519L224.833 275.268Z" fill="#E3EBF6"/>
<path d="M218.974 276.305C219.238 276.152 219.665 276.148 219.934 276.305C220.197 276.458 220.196 276.71 219.931 276.862L206.011 284.899C205.746 285.052 205.313 285.052 205.049 284.899C204.779 284.742 204.788 284.495 205.052 284.343L218.974 276.305Z" fill="#E3EBF6"/>
<path d="M225.045 270.446C225.309 270.293 225.743 270.293 226.007 270.446C226.277 270.604 226.268 270.851 226.003 271.003L203.979 283.719C203.715 283.872 203.288 283.876 203.019 283.719C202.756 283.566 202.757 283.314 203.022 283.162L225.045 270.446Z" fill="#E3EBF6"/>
<path d="M204.024 257.671L223.395 268.928L200.6 282.088L181.23 270.832L204.024 257.671Z" fill="#E3EBF6"/>
<path d="M243.761 281.727C244.522 281.287 245.749 281.287 246.507 281.727L288.331 306.033C289.089 306.473 289.085 307.183 288.322 307.623L232.449 339.882C231.691 340.32 230.464 340.32 229.707 339.88L187.882 315.574C187.125 315.134 187.129 314.423 187.888 313.985L243.761 281.727Z" fill="url(#paint7_linear_2001_2021)"/>
<path d="M260.605 302.653C260.352 302.799 260.351 303.036 260.602 303.182C260.857 303.33 261.265 303.33 261.518 303.184L265.768 300.731C266.021 300.585 266.022 300.348 265.767 300.2C265.516 300.054 265.107 300.054 264.855 300.2L260.605 302.653ZM258.999 303.735L259.006 303.807L259.046 303.881L259.108 303.942L259.188 304.002C259.304 304.069 259.472 304.112 259.64 304.108C259.812 304.11 259.98 304.072 260.1 304.002C260.225 303.93 260.287 303.834 260.288 303.733C260.292 303.638 260.22 303.54 260.104 303.473L260.006 303.424L259.896 303.39L259.769 303.367L259.648 303.36C259.477 303.36 259.313 303.405 259.194 303.474C259.073 303.544 258.998 303.637 258.999 303.735ZM254.292 306.297C254.039 306.443 254.038 306.68 254.289 306.826C254.544 306.974 254.952 306.974 255.205 306.828L258.752 304.78C259.005 304.634 259.006 304.398 258.751 304.25C258.5 304.104 258.09 304.104 257.838 304.25L254.292 306.297ZM256.57 307.622C256.317 307.768 256.316 308.004 256.567 308.15C256.822 308.298 257.231 308.298 257.484 308.152L264.808 303.924C265.061 303.778 265.062 303.541 264.807 303.393C264.556 303.247 264.146 303.247 263.894 303.393L256.57 307.622Z" fill="#FFFEFF"/>
<path d="M243.044 290.228C244.67 289.289 247.311 289.291 248.923 290.228C250.539 291.167 250.531 292.694 248.904 293.634C248.08 294.109 246.994 294.344 245.913 294.336L243.288 298.71C243.437 298.776 243.579 298.846 243.711 298.922C245.327 299.861 245.318 301.388 243.691 302.327C243.365 302.515 242.999 302.663 242.611 302.778L244.867 311.937C245.678 312.021 246.458 312.241 247.08 312.603C248.696 313.543 248.688 315.07 247.061 316.009C245.435 316.948 242.798 316.948 241.182 316.009C240.691 315.723 240.353 315.383 240.161 315.021L227.498 314.889C227.299 315.219 226.972 315.53 226.514 315.795C226.06 316.057 225.522 316.245 224.951 316.359L225.136 323.695C225.76 323.807 226.347 324.004 226.838 324.289C228.454 325.228 228.446 326.756 226.818 327.695C225.192 328.634 222.555 328.634 220.939 327.695C219.323 326.756 219.331 325.228 220.959 324.289C221.417 324.025 221.958 323.839 222.529 323.725L222.34 316.392C221.716 316.279 221.129 316.083 220.634 315.796C219.022 314.858 219.033 313.329 220.656 312.392C222.283 311.453 224.919 311.453 226.532 312.39C227.028 312.678 227.369 313.016 227.56 313.378L240.22 313.512C240.419 313.182 240.743 312.869 241.2 312.604C241.526 312.417 241.892 312.268 242.283 312.156L240.023 302.995C239.213 302.914 238.437 302.693 237.81 302.328C236.194 301.389 236.203 299.862 237.829 298.923C238.653 298.447 239.743 298.214 240.825 298.218L243.449 293.844C243.303 293.781 243.158 293.712 243.024 293.635C241.413 292.696 241.421 291.165 243.044 290.228Z" fill="#F5F9FF"/>
<path d="M172.479 274.359C173.358 273.851 174.783 273.851 175.659 274.361L201.793 289.548C202.357 289.876 202.556 290.335 202.392 290.756C202.301 290.989 202.099 291.21 201.786 291.391L175.477 306.58C174.595 307.09 173.173 307.088 172.297 306.578L146.163 291.391C145.994 291.293 145.858 291.184 145.754 291.066C145.319 290.576 145.457 289.96 146.17 289.548L172.479 274.359Z" fill="#E3EBF6"/>
<path d="M164.567 284.693C167.12 283.296 170.365 282.572 173.642 282.521L173.597 289.94L164.567 284.693Z" fill="#F9CC38"/>
<path d="M174.387 282.521C177.783 282.574 181.141 283.343 183.717 284.84C186.503 286.459 187.814 288.604 187.679 290.731L174.347 290.261L174.387 282.521Z" fill="url(#paint8_linear_2001_2021)"/>
<path d="M164.036 284.999L173.706 290.619C173.754 290.646 173.812 290.662 173.875 290.673L187.64 291.164C187.361 292.964 186.031 294.72 183.653 296.094C178.279 299.196 169.563 299.196 164.224 296.094C158.971 293.041 158.925 288.113 164.036 284.999Z" fill="url(#paint9_linear_2001_2021)"/>
<path d="M442.527 344.843C449.086 348.63 449.121 354.755 442.617 358.534L400.237 383.163C393.732 386.942 383.146 386.95 376.587 383.163L333.942 358.542C327.396 354.762 327.361 348.622 333.865 344.843L376.245 320.214C382.75 316.435 393.335 316.442 399.882 320.222L442.527 344.843Z" fill="#E3EBF6"/>
<path d="M442.527 338.46C449.086 342.247 449.121 348.371 442.617 352.151L400.237 376.779C393.732 380.559 383.146 380.566 376.587 376.779L333.942 352.158C327.396 348.379 327.361 342.239 333.865 338.46L376.245 313.831C382.75 310.051 393.335 310.059 399.882 313.838L442.527 338.46Z" fill="url(#paint10_linear_2001_2021)"/>
<path d="M391.236 330.548L402.064 353.286L362.773 347.088L391.236 330.548Z" fill="#FFFEFF"/>
<path d="M442.617 352.15L400.237 376.778C393.732 380.558 383.146 380.565 376.587 376.778L333.942 352.157C330.648 350.255 329.002 347.756 329.01 345.26L329 348.501C328.993 350.997 330.638 353.496 333.933 355.398L376.578 380.019C383.137 383.806 393.723 383.798 400.227 380.019L442.607 355.39C445.837 353.514 447.454 351.059 447.461 348.599L447.47 345.358C447.464 347.818 445.846 350.273 442.617 352.15Z" fill="#031BA1"/>
<path d="M215.899 157.369C227.202 150.843 245.473 150.838 256.714 157.369C267.943 163.895 267.874 174.479 256.57 181.005C245.267 187.531 226.996 187.536 215.766 181.01C204.526 174.478 204.596 163.894 215.899 157.369Z" fill="#E3EBF6"/>
<path d="M262.11 158.12L262.129 164.603C262.14 168.91 259.298 173.224 253.607 176.509C242.303 183.035 224.032 183.041 212.803 176.515C207.221 173.271 204.428 169.027 204.416 164.777L204.398 158.294C204.41 162.544 207.202 166.787 212.784 170.031C224.014 176.557 242.286 176.552 253.588 170.026C259.278 166.74 262.122 162.426 262.11 158.12Z" fill="url(#paint11_linear_2001_2021)"/>
<path d="M212.917 146.39C224.221 139.864 242.492 139.858 253.732 146.39C264.961 152.916 264.892 163.499 253.588 170.025C242.285 176.551 224.014 176.557 212.784 170.031C201.544 163.499 201.614 152.916 212.917 146.39Z" fill="#474EB8"/>
<path d="M217.078 148.807C226.068 143.617 240.602 143.612 249.542 148.807C258.475 153.998 258.419 162.416 249.428 167.607C240.437 172.797 225.904 172.802 216.971 167.611C208.031 162.416 208.086 153.999 217.078 148.807Z" stroke="#A0D6FF" stroke-width="1.4627" stroke-miterlimit="10"/>
<path d="M220.31 151.168C220.656 150.969 221.071 150.869 221.556 150.869C222.062 150.881 222.517 150.992 222.86 151.191L224.011 151.86C226.283 150.898 228.867 150.517 231.254 150.857C231.548 150.898 231.8 150.975 232.003 151.092C232.073 151.133 232.154 151.192 232.265 151.28C232.456 151.486 232.566 151.702 232.554 151.93C232.563 152.195 232.318 152.499 231.932 152.722C231.567 152.933 231.171 153.056 230.755 153.085C229.571 153.127 228.649 153.215 228.01 153.361C227.199 153.549 226.409 153.865 225.627 154.316C224.702 154.85 224.091 155.483 223.916 156.099C223.7 156.726 223.98 157.324 224.757 157.776C225.624 158.28 226.666 158.333 227.964 158.087C229.028 157.869 230.113 157.513 231.969 156.814C234.037 156.111 235.903 155.654 237.675 155.542C239.801 155.413 241.652 155.794 243.185 156.685C244.669 157.547 245.452 158.661 245.516 159.828C245.58 161.007 244.906 162.214 243.614 163.252L244.916 164.008C245.642 164.43 245.649 165.082 244.927 165.498C244.197 165.92 243.042 165.932 242.315 165.51L241.044 164.772C239.593 165.399 238.032 165.809 236.381 165.968C234.73 166.127 233.222 166.073 231.918 165.786C231.503 165.71 231.17 165.587 230.908 165.434C230.756 165.346 230.625 165.235 230.494 165.111C230.283 164.859 230.275 164.572 230.428 164.238C230.541 164.009 230.703 163.845 230.906 163.728C231.353 163.47 232.133 163.37 233.236 163.446C235.441 163.74 237.62 163.346 239.448 162.291C240.361 161.764 241.044 161.089 241.219 160.415C241.456 159.717 241.187 159.043 240.319 158.539C239.481 158.052 238.449 157.912 237.224 158.105C236.383 158.24 235.591 158.475 234.435 158.885L233.929 159.049C231.503 160.005 229.324 160.539 227.431 160.673C225.152 160.832 223.261 160.462 221.718 159.565C220.306 158.744 219.603 157.677 219.579 156.545C219.544 155.454 220.229 154.323 221.409 153.361L220.259 152.692C219.916 152.493 219.735 152.223 219.737 151.917C219.74 151.638 219.924 151.391 220.31 151.168Z" fill="white"/>
<path d="M262.11 150.625L262.129 157.108C262.14 161.415 259.298 165.729 253.607 169.014C242.303 175.54 224.032 175.546 212.803 169.02C207.221 165.776 204.428 161.532 204.416 157.282L204.398 150.799C204.41 155.048 207.202 159.292 212.784 162.536C224.014 169.062 242.286 169.056 253.588 162.53C259.278 159.245 262.122 154.931 262.11 150.625Z" fill="url(#paint12_linear_2001_2021)"/>
<path d="M212.917 138.895C224.221 132.369 242.492 132.363 253.732 138.895C264.961 145.421 264.892 156.004 253.588 162.53C242.285 169.056 224.014 169.062 212.784 162.536C201.544 156.004 201.614 145.421 212.917 138.895Z" fill="#474EB8"/>
<path d="M217.078 141.312C226.068 136.121 240.602 136.117 249.542 141.312C258.475 146.503 258.419 154.921 249.428 160.112C240.437 165.302 225.904 165.307 216.971 160.116C208.031 154.921 208.086 146.503 217.078 141.312Z" stroke="#A0D6FF" stroke-width="1.4627" stroke-miterlimit="10"/>
<path d="M220.31 143.673C220.656 143.474 221.071 143.374 221.556 143.374C222.062 143.386 222.517 143.497 222.86 143.696L224.011 144.365C226.283 143.403 228.867 143.022 231.254 143.362C231.548 143.403 231.8 143.479 232.003 143.597C232.073 143.638 232.154 143.697 232.265 143.785C232.456 143.991 232.566 144.207 232.554 144.435C232.563 144.7 232.318 145.004 231.932 145.227C231.567 145.438 231.171 145.561 230.755 145.59C229.571 145.632 228.649 145.72 228.01 145.865C227.199 146.054 226.409 146.37 225.627 146.821C224.702 147.355 224.091 147.988 223.916 148.604C223.7 149.231 223.98 149.829 224.757 150.281C225.624 150.785 226.666 150.837 227.964 150.592C229.028 150.374 230.113 150.017 231.969 149.319C234.037 148.616 235.903 148.159 237.675 148.047C239.801 147.919 241.652 148.299 243.185 149.19C244.669 150.052 245.452 151.166 245.516 152.333C245.58 153.512 244.906 154.719 243.614 155.757L244.916 156.513C245.642 156.935 245.649 157.586 244.927 158.002C244.197 158.424 243.042 158.436 242.315 158.014L241.044 157.275C239.593 157.903 238.032 158.313 236.381 158.472C234.73 158.63 233.222 158.577 231.918 158.29C231.503 158.214 231.17 158.091 230.908 157.938C230.756 157.85 230.625 157.739 230.494 157.615C230.283 157.362 230.275 157.075 230.428 156.741C230.541 156.513 230.703 156.349 230.906 156.231C231.353 155.974 232.133 155.874 233.236 155.95C235.441 156.243 237.62 155.85 239.448 154.795C240.361 154.267 241.044 153.593 241.219 152.919C241.456 152.222 241.187 151.548 240.319 151.043C239.481 150.556 238.449 150.416 237.224 150.609C236.383 150.744 235.591 150.979 234.435 151.389L233.929 151.553C231.503 152.509 229.324 153.043 227.431 153.177C225.152 153.335 223.261 152.966 221.718 152.069C220.306 151.247 219.603 150.181 219.579 149.049C219.544 147.958 220.229 146.827 221.409 145.864L220.259 145.196C219.916 144.997 219.735 144.727 219.737 144.421C219.74 144.142 219.924 143.896 220.31 143.673Z" fill="white"/>
<path d="M262.11 143.047L262.129 149.531C262.14 153.837 259.298 158.151 253.607 161.436C242.303 167.962 224.032 167.968 212.803 161.442C207.221 158.198 204.428 153.954 204.416 149.705L204.398 143.221C204.41 147.471 207.202 151.714 212.784 154.958C224.014 161.484 242.286 161.479 253.588 154.953C259.278 151.667 262.122 147.354 262.11 143.047Z" fill="url(#paint13_linear_2001_2021)"/>
<path d="M212.917 131.317C224.221 124.791 242.492 124.785 253.732 131.317C264.961 137.843 264.892 148.427 253.588 154.953C242.285 161.479 224.014 161.484 212.784 154.958C201.544 148.427 201.614 137.843 212.917 131.317Z" fill="#F69524"/>
<path d="M217.078 133.735C226.068 128.545 240.602 128.54 249.542 133.735C258.475 138.926 258.419 147.344 249.428 152.535C240.437 157.726 225.904 157.73 216.971 152.539C208.031 147.344 208.086 138.926 217.078 133.735Z" stroke="#F9A338" stroke-width="1.4627" stroke-miterlimit="10"/>
<path d="M220.31 136.095C220.656 135.896 221.071 135.796 221.556 135.796C222.062 135.808 222.517 135.919 222.86 136.119L224.011 136.788C226.283 135.827 228.867 135.445 231.254 135.785C231.548 135.827 231.8 135.903 232.003 136.02C232.073 136.062 232.154 136.12 232.265 136.208C232.456 136.414 232.566 136.63 232.554 136.859C232.563 137.123 232.318 137.427 231.932 137.65C231.567 137.861 231.171 137.984 230.755 138.014C229.571 138.055 228.649 138.143 228.01 138.289C227.199 138.477 226.409 138.793 225.627 139.245C224.702 139.779 224.091 140.412 223.916 141.027C223.7 141.655 223.98 142.253 224.757 142.704C225.624 143.209 226.666 143.261 227.964 143.015C229.028 142.799 230.113 142.441 231.969 141.743C234.037 141.039 235.903 140.582 237.675 140.47C239.801 140.342 241.652 140.723 243.185 141.613C244.669 142.476 245.452 143.589 245.516 144.756C245.58 145.935 244.906 147.142 243.614 148.181L244.916 148.938C245.642 149.359 245.649 150.011 244.927 150.426C244.197 150.848 243.042 150.86 242.315 150.438L241.044 149.7C239.593 150.327 238.032 150.737 236.381 150.896C234.73 151.055 233.222 151.002 231.918 150.714C231.503 150.638 231.17 150.515 230.908 150.363C230.756 150.275 230.625 150.164 230.494 150.04C230.283 149.788 230.275 149.501 230.428 149.167C230.541 148.939 230.703 148.774 230.906 148.657C231.353 148.399 232.133 148.299 233.236 148.375C235.441 148.669 237.62 148.275 239.448 147.22C240.361 146.693 241.044 146.019 241.219 145.344C241.456 144.647 241.187 143.972 240.319 143.469C239.481 142.981 238.449 142.841 237.224 143.035C236.383 143.169 235.591 143.404 234.435 143.814L233.929 143.979C231.503 144.934 229.324 145.467 227.431 145.602C225.152 145.761 223.261 145.391 221.718 144.494C220.306 143.673 219.603 142.606 219.579 141.474C219.544 140.383 220.229 139.252 221.409 138.29L220.259 137.621C219.916 137.422 219.735 137.152 219.737 136.847C219.74 136.565 219.924 136.318 220.31 136.095Z" fill="white"/>
<path d="M255.831 132.626L255.849 139.11C255.861 143.417 253.018 147.731 247.328 151.016C236.024 157.542 217.753 157.548 206.524 151.021C200.941 147.777 198.149 143.534 198.137 139.284L198.118 132.8C198.13 137.05 200.923 141.294 206.505 144.538C217.735 151.064 236.007 151.058 247.309 144.532C252.999 141.247 255.843 136.933 255.831 132.626Z" fill="url(#paint14_linear_2001_2021)"/>
<path d="M206.637 120.897C217.94 114.371 236.211 114.365 247.452 120.897C258.681 127.423 258.611 138.006 247.308 144.532C236.005 151.058 217.734 151.064 206.504 144.538C195.265 138.005 195.334 127.422 206.637 120.897Z" fill="#F69524"/>
<path d="M210.797 123.314C219.788 118.123 234.321 118.119 243.261 123.314C252.194 128.505 252.139 136.923 243.147 142.114C234.157 147.304 219.624 147.309 210.691 142.118C201.752 136.923 201.807 128.505 210.797 123.314Z" stroke="white" stroke-width="1.4627" stroke-miterlimit="10"/>
<path d="M214.031 125.675C214.376 125.476 214.792 125.376 215.277 125.376C215.783 125.388 216.238 125.499 216.581 125.699L217.731 126.368C220.004 125.406 222.588 125.025 224.975 125.365C225.269 125.406 225.521 125.482 225.723 125.6C225.794 125.641 225.875 125.7 225.985 125.788C226.177 125.994 226.287 126.21 226.275 126.438C226.283 126.703 226.039 127.007 225.653 127.23C225.287 127.441 224.891 127.564 224.476 127.593C223.292 127.635 222.37 127.723 221.731 127.868C220.92 128.057 220.129 128.373 219.347 128.824C218.423 129.358 217.813 129.991 217.637 130.607C217.42 131.234 217.701 131.832 218.477 132.284C219.345 132.788 220.387 132.84 221.684 132.595C222.749 132.377 223.833 132.02 225.69 131.322C227.759 130.619 229.624 130.162 231.396 130.05C233.522 129.92 235.373 130.302 236.906 131.193C238.389 132.055 239.172 133.169 239.237 134.336C239.301 135.515 238.626 136.722 237.335 137.76L238.636 138.517C239.363 138.939 239.369 139.59 238.648 140.006C237.917 140.428 236.763 140.44 236.036 140.018L234.765 139.279C233.314 139.907 231.752 140.317 230.102 140.476C228.451 140.634 226.942 140.581 225.639 140.294C225.224 140.218 224.89 140.095 224.628 139.943C224.477 139.855 224.345 139.744 224.215 139.62C224.004 139.368 223.995 139.08 224.149 138.747C224.262 138.518 224.424 138.354 224.627 138.237C225.074 137.979 225.854 137.879 226.957 137.955C229.162 138.249 231.34 137.855 233.168 136.8C234.082 136.273 234.765 135.598 234.94 134.924C235.177 134.226 234.907 133.552 234.039 133.048C233.202 132.562 232.17 132.421 230.944 132.614C230.104 132.749 229.312 132.984 228.156 133.394L227.649 133.558C225.224 134.514 223.045 135.047 221.152 135.182C218.873 135.341 216.982 134.971 215.439 134.074C214.026 133.253 213.324 132.186 213.3 131.054C213.265 129.963 213.95 128.832 215.13 127.869L213.979 127.201C213.637 127.002 213.455 126.732 213.457 126.426C213.461 126.144 213.645 125.898 214.031 125.675Z" fill="white"/>
<path d="M177.588 169.823C183.598 170.438 188.834 172.088 192.847 174.401C199.319 178.13 202.62 183.583 200.882 189.196C199.792 192.701 196.892 195.756 192.84 198.096C186.383 201.824 177.005 203.733 167.371 202.746C161.364 202.128 156.13 200.477 152.115 198.164C145.643 194.435 142.339 188.986 144.077 183.373C145.166 179.868 148.067 176.812 152.119 174.473C158.574 170.745 167.954 168.836 177.588 169.823Z" fill="#E3EBF6"/>
<path d="M175.971 159.618C181.981 160.233 187.216 161.883 191.23 164.196C197.703 167.925 201.003 173.378 199.265 178.99C198.175 182.495 195.275 185.551 191.223 187.891C184.766 191.618 175.388 193.528 165.753 192.541C159.747 191.923 154.513 190.272 150.498 187.959C144.025 184.23 140.722 178.781 142.459 173.167C143.549 169.662 146.449 166.606 150.501 164.267C156.958 160.541 166.336 158.63 175.971 159.618Z" fill="#F69524"/>
<path d="M174.91 163.034C179.673 163.521 183.822 164.829 187.003 166.663C192.133 169.619 194.747 173.939 193.37 178.387C192.507 181.165 190.208 183.586 186.997 185.441C181.88 188.394 174.448 189.908 166.813 189.126C162.053 188.637 157.904 187.328 154.723 185.495C149.593 182.54 146.976 178.221 148.352 173.773C149.216 170.995 151.515 168.574 154.726 166.719C159.843 163.765 167.276 162.252 174.91 163.034Z" stroke="white" stroke-width="1.4627" stroke-miterlimit="10"/>
<path d="M153.749 174.083C153.825 174.038 153.911 173.998 154.005 173.96C154.421 173.801 154.897 173.749 155.383 173.796L156.982 173.96C157.514 173.077 158.314 172.317 159.33 171.729C160.089 171.291 160.97 170.95 161.949 170.729C162.224 170.665 162.517 170.646 162.79 170.676C162.901 170.681 163.033 170.71 163.195 170.746C163.559 170.84 163.861 170.993 164.083 171.18C164.345 171.391 164.444 171.72 164.352 172.031C164.267 172.305 164.089 172.524 163.817 172.681C163.792 172.695 163.767 172.709 163.741 172.722C163.253 172.949 162.839 173.157 162.499 173.354C162.194 173.53 161.947 173.696 161.76 173.853C161.282 174.27 160.945 174.804 160.749 175.43C160.522 176.169 160.639 176.896 161.112 177.453C161.564 178.045 162.382 178.426 163.475 178.544C164.437 178.642 165.207 178.471 165.892 178.075C166.063 177.975 166.231 177.862 166.395 177.735C167.066 177.207 167.596 176.55 168.423 175.36C169.33 174.243 170.278 173.325 171.427 172.661C171.568 172.58 171.713 172.502 171.862 172.428C173.476 171.613 175.37 171.314 177.526 171.53C179.59 171.741 181.337 172.393 182.547 173.33C183.766 174.274 184.407 175.482 184.369 176.767L186.18 176.948C187.212 177.054 187.857 177.581 187.671 178.157C187.602 178.389 187.414 178.592 187.15 178.744C186.742 178.98 186.151 179.097 185.531 179.03L183.77 178.854C183.207 179.833 182.341 180.672 181.173 181.346C179.915 182.061 178.627 182.512 177.28 182.718C176.855 182.788 176.47 182.8 176.105 182.764C175.882 182.741 175.661 182.694 175.438 182.635C175.023 182.5 174.721 182.265 174.52 181.937C174.38 181.726 174.36 181.527 174.401 181.363C174.462 181.17 174.646 180.985 174.955 180.807C175.221 180.652 175.581 180.504 176.036 180.36C176.831 180.174 177.525 179.911 178.104 179.576C179.062 179.022 179.712 178.274 180 177.357C180.227 176.619 180.11 175.845 179.596 175.229C179.094 174.584 178.216 174.121 176.992 173.998C175.954 173.888 175.051 174.063 174.291 174.501C174.2 174.555 174.11 174.611 174.022 174.672C173.463 175.065 173.056 175.511 172.505 176.238L172.25 176.537C171.302 177.998 170.151 179.092 168.86 179.837C168.747 179.902 168.632 179.965 168.516 180.026C166.811 180.906 164.885 181.234 162.74 181.011C160.758 180.812 159.131 180.173 158.003 179.258C156.884 178.373 156.324 177.223 156.34 176.045L154.742 175.88C154.257 175.834 153.842 175.675 153.54 175.429C153.257 175.194 153.168 174.931 153.261 174.62C153.341 174.407 153.496 174.229 153.749 174.083Z" fill="white"/>
<path d="M199.725 175.985L199.743 182.469C199.746 183.459 199.596 184.464 199.283 185.474C198.194 188.979 195.293 192.035 191.241 194.374C184.785 198.102 175.406 200.012 165.772 199.025C159.766 198.407 154.532 196.756 150.517 194.443C145.209 191.385 142.031 187.169 142.019 182.656L142 176.172C142.014 180.686 145.19 184.901 150.498 187.959C154.513 190.272 159.747 191.923 165.754 192.541C175.388 193.528 184.766 191.618 191.223 187.891C195.275 185.552 198.176 182.496 199.265 178.991C199.578 177.98 199.727 176.976 199.725 175.985Z" fill="url(#paint15_linear_2001_2021)"/>
<path d="M42.0481 245.365L42.0618 250.118L74.5271 268.984L74.5135 264.231L42.0481 245.365Z" fill="#C6D5FA"/>
<path d="M39.508 241.809L39.5216 246.561C39.5252 247.849 40.3712 249.135 42.0625 250.117L42.0489 245.365C40.3576 244.382 39.5116 243.096 39.508 241.809Z" fill="#C6D5FA"/>
<path d="M86.8827 264.23L86.8963 268.982L157.42 228.266L157.406 223.513L86.8827 264.23Z" fill="#D4E2FC"/>
<path d="M160 224.66L159.986 219.907C159.99 221.212 159.13 222.519 157.406 223.514L157.419 228.267C159.142 227.271 160.004 225.965 160 224.66Z" fill="#D4E2FC"/>
<path d="M74.5135 264.231L74.5264 268.984C77.9291 270.962 83.4684 270.962 86.8956 268.983L86.8819 264.23C83.4562 266.209 77.9162 266.209 74.5135 264.231Z" fill="#CDDCFB"/>
<path d="M42.0913 238.2C38.6648 240.178 38.6447 243.386 42.0489 245.365L74.5142 264.231C77.9162 266.209 83.4562 266.209 86.8834 264.23L157.407 223.514C160.832 221.537 160.85 218.328 157.447 216.35L124.982 197.483C121.578 195.505 116.04 195.506 112.615 197.483L42.0913 238.2Z" fill="#D4E2FC"/>
<path d="M42.0913 238.2L48.291 234.62L93.2284 260.566L86.8826 264.229C83.4562 266.208 77.9162 266.208 74.5135 264.23L42.0489 245.363C38.644 243.386 38.6641 240.178 42.0913 238.2Z" fill="#F1F1F1"/>
<path d="M112.615 197.483C116.04 195.506 121.577 195.505 124.982 197.483L157.447 216.35C160.85 218.328 160.832 221.536 157.407 223.514L155.243 224.762L110.305 198.817L112.615 197.483Z" fill="#F1F1F1"/>
<path d="M47.2256 234.622L92.1623 260.564L140.025 232.931L146.209 229.362L149.311 227.57L154.177 224.762L142.827 218.208L134.023 213.127L109.237 198.816L104.375 201.623L47.2256 234.622Z" fill="url(#paint16_linear_2001_2021)"/>
<path d="M130.457 206.409L138.48 211.041C139.038 211.364 139.942 211.364 140.499 211.041C141.057 210.719 141.057 210.197 140.499 209.875L132.476 205.243C131.919 204.921 131.014 204.921 130.457 205.243C129.899 205.565 129.899 206.087 130.457 206.409Z" fill="#372B3D"/>
<path d="M126.494 202.955C127.284 202.499 128.565 202.499 129.354 202.955C130.144 203.411 130.144 204.15 129.354 204.607C128.564 205.062 127.284 205.062 126.494 204.607C125.705 204.15 125.705 203.411 126.494 202.955Z" fill="#372B3D"/>
<path d="M142.094 211.961C142.502 211.726 143.163 211.726 143.572 211.961C143.98 212.196 143.98 212.579 143.572 212.814C143.164 213.05 142.502 213.05 142.094 212.814C141.685 212.579 141.685 212.197 142.094 211.961Z" fill="#372B3D"/>
<path d="M144.634 213.428C145.042 213.193 145.704 213.193 146.112 213.428C146.52 213.664 146.52 214.046 146.112 214.282C145.704 214.517 145.042 214.517 144.634 214.282C144.226 214.046 144.226 213.664 144.634 213.428Z" fill="#372B3D"/>
<path d="M67.4721 256.018C67.7965 256.018 68.1217 255.944 68.3749 255.798L72.5884 253.365C72.8797 253.197 73.0466 252.946 73.0466 252.676C73.0466 252.406 72.8797 252.154 72.5884 251.986L63.0112 246.456C62.5047 246.164 61.7105 246.164 61.2048 246.457L56.9913 248.89C56.6999 249.058 56.5331 249.309 56.5331 249.58C56.5331 249.85 56.6999 250.101 56.9913 250.27L66.5685 255.799C66.8218 255.944 67.1469 256.018 67.4721 256.018ZM62.1076 246.82C62.332 246.82 62.5558 246.867 62.7191 246.961L72.2963 252.491C72.4193 252.562 72.4632 252.634 72.4632 252.675C72.4632 252.716 72.4193 252.789 72.2963 252.86L68.0828 255.293C67.757 255.481 67.1858 255.481 66.8599 255.293L57.2826 249.763C57.1596 249.692 57.1165 249.619 57.1165 249.578C57.1165 249.537 57.1596 249.465 57.2826 249.394L61.4961 246.961C61.6587 246.867 61.8831 246.82 62.1076 246.82Z" fill="#CDDCFB"/>
<path d="M55.8475 254.34L58.0733 255.624L55.3547 256.928V254.054L55.8475 254.34Z" fill="#D4E2FC"/>
<path d="M59.5495 256.477V259.354L55.3547 256.928L58.0733 255.624L59.5495 256.477Z" fill="#F1F1F1"/>
<path d="M55.8475 254.34V256.692L59.5494 258.829V256.477L55.8475 254.34Z" fill="#10191B"/>
<path d="M145.142 234.53L153.202 229.877V227.184L145.142 231.836V234.53Z" fill="#BCC5DF"/>
<defs>
<radialGradient id="paint0_radial_2001_2021" cx="0" cy="0" r="1" gradientUnits="userSpaceOnUse" gradientTransform="translate(279.245 373.488) rotate(90) scale(109.988 277.75)">
<stop stop-color="#F5F9FF"/>
<stop offset="1" stop-color="#B0C7ED"/>
</radialGradient>
<linearGradient id="paint1_linear_2001_2021" x1="480.621" y1="14.9393" x2="480.621" y2="235.684" gradientUnits="userSpaceOnUse">
<stop stop-color="#555C8B"/>
<stop offset="1" stop-color="#6C86DD"/>
</linearGradient>
<linearGradient id="paint2_linear_2001_2021" x1="480.424" y1="120.156" x2="480.424" y2="225.24" gradientUnits="userSpaceOnUse">
<stop stop-color="#555C8B"/>
<stop offset="1" stop-color="#6C86DD"/>
</linearGradient>
<linearGradient id="paint3_linear_2001_2021" x1="525.165" y1="91.7658" x2="528.526" y2="223.102" gradientUnits="userSpaceOnUse">
<stop stop-color="#FFB244"/>
<stop offset="0.692155" stop-color="#F7D379" stop-opacity="0.8"/>
</linearGradient>
<linearGradient id="paint4_linear_2001_2021" x1="535.614" y1="75.548" x2="536.775" y2="160.518" gradientUnits="userSpaceOnUse">
<stop stop-color="#FFB244"/>
<stop offset="0.692155" stop-color="#F7D379" stop-opacity="0.8"/>
</linearGradient>
<linearGradient id="paint5_linear_2001_2021" x1="318.81" y1="310.293" x2="318.81" y2="314.742" gradientUnits="userSpaceOnUse">
<stop stop-color="#555C8B"/>
<stop offset="1" stop-color="#6C86DD"/>
</linearGradient>
<linearGradient id="paint6_linear_2001_2021" x1="249.824" y1="233.207" x2="251.426" y2="371.785" gradientUnits="userSpaceOnUse">
<stop stop-color="#FFB244"/>
<stop offset="0.692155" stop-color="#F7D379" stop-opacity="0.8"/>
</linearGradient>
<linearGradient id="paint7_linear_2001_2021" x1="255.65" y1="281.549" x2="255.65" y2="346.032" gradientUnits="userSpaceOnUse">
<stop stop-color="#555C8B"/>
<stop offset="1" stop-color="#6C86DD"/>
</linearGradient>
<linearGradient id="paint8_linear_2001_2021" x1="183.322" y1="282.543" x2="183.322" y2="291.544" gradientUnits="userSpaceOnUse">
<stop stop-color="#555C8B"/>
<stop offset="1" stop-color="#6C86DD"/>
</linearGradient>
<linearGradient id="paint9_linear_2001_2021" x1="160.243" y1="291.71" x2="187.641" y2="291.71" gradientUnits="userSpaceOnUse">
<stop stop-color="#3162DE"/>
<stop offset="1" stop-color="#6376F2"/>
</linearGradient>
<linearGradient id="paint10_linear_2001_2021" x1="408.218" y1="308.878" x2="409.114" y2="386.405" gradientUnits="userSpaceOnUse">
<stop stop-color="#FFB244"/>
<stop offset="0.692155" stop-color="#F7D379" stop-opacity="0.8"/>
</linearGradient>
<linearGradient id="paint11_linear_2001_2021" x1="204.397" y1="169.763" x2="262.128" y2="169.763" gradientUnits="userSpaceOnUse">
<stop stop-color="#3162DE"/>
<stop offset="1" stop-color="#6376F2"/>
</linearGradient>
<linearGradient id="paint12_linear_2001_2021" x1="204.397" y1="162.267" x2="262.128" y2="162.267" gradientUnits="userSpaceOnUse">
<stop stop-color="#3162DE"/>
<stop offset="1" stop-color="#6376F2"/>
</linearGradient>
<linearGradient id="paint13_linear_2001_2021" x1="204.397" y1="154.69" x2="262.128" y2="154.69" gradientUnits="userSpaceOnUse">
<stop stop-color="#3162DE"/>
<stop offset="1" stop-color="#6376F2"/>
</linearGradient>
<linearGradient id="paint14_linear_2001_2021" x1="198.117" y1="144.269" x2="255.849" y2="144.269" gradientUnits="userSpaceOnUse">
<stop stop-color="#3162DE"/>
<stop offset="1" stop-color="#6376F2"/>
</linearGradient>
<linearGradient id="paint15_linear_2001_2021" x1="142" y1="187.633" x2="199.743" y2="187.633" gradientUnits="userSpaceOnUse">
<stop stop-color="#3162DE"/>
<stop offset="1" stop-color="#6376F2"/>
</linearGradient>
<linearGradient id="paint16_linear_2001_2021" x1="82.2307" y1="198.976" x2="82.2307" y2="266.678" gradientUnits="userSpaceOnUse">
<stop stop-color="#555C8B"/>
<stop offset="1" stop-color="#6C86DD"/>
</linearGradient>
</defs>
</svg>
