<svg width="110" height="110" viewBox="0 0 110 110" fill="none" xmlns="http://www.w3.org/2000/svg">
<path fill-rule="evenodd" clip-rule="evenodd" d="M72.4519 6L50.0525 15.6531V95.6733H56.8719V78.8523L55.2938 79.0038C54.6481 79.0652 54.0753 78.5875 54.0145 77.9366C53.9536 77.2857 54.4274 76.7083 55.073 76.6467L67.2106 75.4821C67.8562 75.4205 68.429 75.8984 68.4901 76.5493C68.551 77.2002 68.0771 77.7776 67.4315 77.839L65.6326 78.0116V95.6731H94.8515V15.6531L72.4519 6ZM58.8395 68.0705L54.6055 68.4791V60.2317L58.8395 59.5735V68.0705ZM58.8408 54.6736L54.6057 55.4757V47.2086L58.8408 46.1562V54.6736ZM58.8408 41.27L54.6057 42.4659V34.1987L58.8408 32.7526V41.27ZM58.8408 27.8594L54.6057 29.4427V21.7193L58.8422 19.8886L58.8408 27.8594ZM67.8988 67.2005L63.1278 67.6615V58.8975L67.8988 58.1545V67.2005ZM67.8988 52.9466L63.1278 53.8519V45.0948L67.8988 43.9078V52.9464V52.9466ZM67.8988 38.6999L63.1278 40.049V31.2849L67.8988 29.6539V38.6999ZM67.8988 24.4532L63.1278 26.2461L63.1265 18.0381L67.8987 15.974V24.4532H67.8988ZM79.2301 81.6206C79.2301 82.2766 78.7027 82.8084 78.052 82.8084C77.4012 82.8084 76.8738 82.2766 76.8738 81.6206V16.3744C76.8738 15.7184 77.4012 15.1867 78.052 15.1867C78.7027 15.1867 79.2301 15.7184 79.2301 16.3744V81.621V81.6206ZM84.83 81.6206C84.83 82.2766 84.3026 82.8084 83.6518 82.8084C83.0011 82.8084 82.4736 82.2766 82.4736 81.6206V18.7878C82.4736 18.1317 83.0013 17.6 83.6518 17.6C84.3024 17.6 84.83 18.1319 84.83 18.7878V81.621V81.6206ZM90.4299 81.6206C90.4299 82.2766 89.9024 82.8084 89.2517 82.8084C88.6009 82.8084 88.0735 82.2766 88.0735 81.6206V21.2011C88.0735 20.5451 88.6009 20.0133 89.2517 20.0133C89.9024 20.0133 90.4299 20.5451 90.4299 21.2011V81.621V81.6206ZM38.4737 29.3129L15.1486 39.3648V95.6733H22.4309V82.6136L20.8528 82.765C20.2071 82.8264 19.6343 82.3487 19.5735 81.6978C19.5126 81.0469 19.9864 80.4695 20.6321 80.4081L32.7696 79.2435C33.4153 79.1821 33.988 79.6598 34.0491 80.3107C34.11 80.9616 33.6362 81.539 32.9905 81.6006L31.1916 81.7732V95.6735H47.6963V33.2873L38.4737 29.3129ZM23.5783 70.4632L20.1323 70.9389V64.2519L23.5783 63.5382V70.4632ZM23.5783 59.5634L20.1323 60.4178V53.7305L23.5783 52.6384V59.5634ZM23.5795 48.6594L20.1325 49.8881V43.6425L23.5806 42.1784L23.5795 48.6594ZM31.0717 69.4202L27.103 69.9715V62.8099L31.0717 61.9842V69.4202ZM31.0717 57.698L27.103 58.6837V51.5177L31.0717 50.2534V57.698ZM31.0717 45.9715L27.1018 47.396V40.6852L31.0717 38.9893V45.9715ZM7 98.0488H103V103H7V98.0488Z" fill="#9BDD01"/>
</svg>
