<svg width="110" height="110" viewBox="0 0 110 110" fill="none" xmlns="http://www.w3.org/2000/svg">
<path d="M44.574 86.3494H38.0937V75.1812L70.2194 29.9569L84.5588 23.4766C84.0073 22.6494 83.5937 21.8221 83.4558 20.9948L76.2861 24.166L70.6331 21.4085L83.18 18.3751C83.18 17.2721 83.5937 16.3069 84.0073 15.3418C32.7164 27.613 33.2679 27.3373 33.13 27.4751C32.8543 27.4751 32.4406 27.7509 32.3028 28.0266C32.1649 28.1645 31.4755 29.4054 25.5467 39.0569C24.5815 40.16 24.03 41.6766 24.03 42.7797V47.7433L14.1028 52.2933C13.4134 52.5691 13.1376 53.3963 13.4134 54.0857C13.6891 54.7751 14.5164 55.0509 15.2058 54.7751L16.1709 54.3615V68.7009C10.7937 68.8388 8.44973 75.5948 12.5861 79.0418C9.9664 81.2479 9.82852 85.2463 12.3103 87.7282V88.0039V94.2085C12.3103 94.8979 12.8619 95.5872 13.6891 95.5872H44.574C45.4012 95.5872 45.9528 94.8979 45.9528 94.2085V88.0039C45.9528 87.0388 45.2634 86.3494 44.574 86.3494ZM66.4967 22.3736L73.1149 25.6827L64.0149 29.6812L54.3634 25.2691L66.4967 22.3736ZM50.0891 26.2342L60.8437 31.1979L51.7437 35.3342L37.9558 29.2676L50.0891 26.2342ZM48.2967 36.8509L41.9543 39.7463C40.9891 38.2297 39.1967 37.2645 37.2664 37.2645H34.9225V31.06L48.2967 36.8509ZM32.1649 37.1266H29.9588L32.1649 33.6797V37.1266ZM28.8558 59.1873V86.3494H23.7543C25.4088 83.7297 24.7194 80.6963 22.5134 78.766C26.6497 75.3191 24.3058 68.563 18.9285 68.4251V52.9827L24.03 50.6388V50.7766C24.03 53.9479 26.5119 56.4297 29.6831 56.4297H37.2664C40.4376 56.4297 42.9194 53.9479 42.9194 50.7766V42.7797C42.9194 42.6418 42.9194 42.366 42.9194 42.2282L65.3937 32.163L38.0937 70.3554V59.1873C37.8179 59.1873 37.5422 59.1873 37.2664 59.1873H29.6831C29.4073 59.3251 29.1315 59.1873 28.8558 59.1873Z" fill="#9BDD01"/>
<path d="M95.7275 31.7496H92.6942V24.0284C94.9002 23.4769 96.5548 21.4087 96.5548 18.9269C96.5548 16.0314 94.2108 13.6875 91.3154 13.6875C88.4199 13.6875 86.076 16.0314 86.076 18.9269C86.076 21.2708 87.5927 23.339 89.9366 24.0284V31.7496H86.7654C85.2487 31.7496 84.0078 32.9905 84.0078 34.5072V43.4693C84.0078 44.986 85.2487 46.2269 86.7654 46.2269H95.7275C97.2442 46.2269 98.4851 44.986 98.4851 43.4693V34.5072C98.4851 32.9905 97.2442 31.7496 95.7275 31.7496Z" fill="#9BDD01"/>
<path d="M69.3913 80.5586H61.3943C59.8776 80.5586 58.6367 81.7995 58.6367 83.3162V91.451C58.6367 92.9677 59.8776 94.2086 61.3943 94.2086H69.5291C71.0458 94.2086 72.2867 92.9677 72.2867 91.451V83.3162C72.1488 81.7995 70.9079 80.5586 69.3913 80.5586Z" fill="#9BDD01"/>
<path d="M84.4198 80.5586H76.2849C74.7683 80.5586 73.5273 81.7995 73.5273 83.3162V91.451C73.5273 92.9677 74.7683 94.2086 76.2849 94.2086H84.4198C85.9364 94.2086 87.1773 92.9677 87.1773 91.451V83.3162C87.1773 81.7995 85.9364 80.5586 84.4198 80.5586Z" fill="#9BDD01"/>
<path d="M68.1521 65.6678C66.6354 65.6678 65.3945 66.9088 65.3945 68.4254V76.5603C65.3945 78.0769 66.6354 79.3178 68.1521 79.3178H76.287C77.8036 79.3178 79.0445 78.0769 79.0445 76.5603V68.4254C79.0445 66.9088 77.8036 65.6678 76.287 65.6678H68.1521Z" fill="#9BDD01"/>
</svg>
