<svg width="50" height="85" viewBox="0 0 50 85" fill="none" xmlns="http://www.w3.org/2000/svg">
<g clip-path="url(#clip0_352_4718)">
<path d="M38.4207 48.1899H9.07842L8.01576 51.7149H15.8391L17.3232 56.5744H30.1759L31.6691 51.7149H39.4833L38.4207 48.1899ZM13.8695 28.4022C12.7901 29.8975 12.3458 31.7622 12.6344 33.5864C12.923 35.4106 13.9209 37.0451 15.4086 38.1304L22.435 43.2568C22.6203 43.391 22.7774 43.5607 22.8972 43.7562C23.017 43.9517 23.0971 44.169 23.1328 44.3958C23.1686 44.6225 23.1593 44.8541 23.1056 45.0772C23.0519 45.3003 22.9547 45.5105 22.8197 45.6957L23.8732 46.4596L27.5834 41.324C28.4448 40.1406 28.9099 38.713 28.9117 37.2469C28.9085 36.8739 28.8779 36.5017 28.8201 36.1332C28.5395 34.3118 27.5511 32.6767 26.0718 31.5867L19.0546 26.4695C18.8614 26.3395 18.6967 26.1713 18.5707 25.975C18.4447 25.7787 18.3599 25.5586 18.3217 25.3282C18.3126 25.2362 18.3126 25.1442 18.3217 25.0521C18.3241 24.6856 18.4393 24.3287 18.6515 24.0305L17.598 23.2574L13.8695 28.4022ZM18.1019 7.80463C16.8575 9.52106 16.1871 11.5898 16.1872 13.7133C16.1845 14.2527 16.2276 14.792 16.3155 15.3239C16.5183 16.6351 16.9782 17.8928 17.6685 19.024C18.3589 20.1552 19.266 21.1374 20.3371 21.9137L29.1682 28.3562C29.7409 28.7718 30.2261 29.2973 30.5956 29.9023C30.9651 30.5074 31.2116 31.1799 31.321 31.8812C31.368 32.1672 31.3925 32.4564 31.3943 32.7463C31.3898 33.8792 31.0273 34.9814 30.3591 35.8939L31.2111 36.5106L38.1642 26.856C41.4108 22.3343 40.4067 16.0271 35.9197 12.7469L25.2657 4.96993C24.9358 4.72994 24.6567 4.42659 24.4444 4.07745C24.2321 3.7283 24.0909 3.34031 24.0289 2.93594C23.9617 2.53206 23.9757 2.11874 24.0701 1.72039C24.1645 1.32204 24.3374 0.946733 24.5786 0.616639L23.7358 0L18.1019 7.80463ZM0.0732869 59.5195H8.11653C9.76811 59.4093 11.3957 59.9621 12.642 61.0565C13.0292 61.4419 13.3338 61.9028 13.537 62.4109C13.7402 62.9189 13.8378 63.4634 13.8237 64.0108V64.0661C13.8455 64.8441 13.6425 65.6119 13.2393 66.2766C12.8362 66.9413 12.2501 67.4746 11.5518 67.8119C13.5489 68.585 14.7856 69.7539 14.7856 72.0916C14.7856 75.276 12.2206 76.8682 8.3089 76.8682H0.0641261L0.0732869 59.5195ZM7.32869 66.551C9.00513 66.551 10.077 65.9988 10.077 64.7103C10.077 63.5599 9.16086 62.8696 7.57604 62.8696H3.78344V66.551H7.32869ZM8.33639 73.5549C10.022 73.5549 11.0297 72.9567 11.0297 71.7142V71.659C11.0297 70.4994 10.1686 69.8183 8.2173 69.8183H3.78344V73.647L8.33639 73.5549ZM16.4896 59.5195H24.5328C26.1844 59.4093 27.812 59.9621 29.0583 61.0565C29.4438 61.4426 29.7467 61.9039 29.9483 62.412C30.15 62.92 30.2461 63.4641 30.2309 64.0108V64.0661C30.2526 64.8441 30.0496 65.6119 29.6464 66.2766C29.2433 66.9413 28.6572 67.4746 27.959 67.8119C29.9652 68.585 31.2019 69.7539 31.2019 72.0916C31.2019 75.276 28.6277 76.8682 24.716 76.8682H16.4896V59.5195ZM23.7175 66.551C25.3939 66.551 26.4657 65.9988 26.4657 64.7103C26.4657 63.5599 25.5497 62.8696 23.974 62.8696H20.1539V66.551H23.7175ZM24.7252 73.5549C26.4108 73.5549 27.4185 72.9567 27.4185 71.7142V71.659C27.4185 70.4994 26.5573 69.8183 24.6061 69.8183H20.1539V73.647L24.7252 73.5549ZM32.8142 59.5195H40.8575C42.509 59.4093 44.1366 59.9621 45.3829 61.0565C45.7701 61.4419 46.0747 61.9028 46.2779 62.4109C46.4812 62.9189 46.5788 63.4634 46.5647 64.0108V64.0661C46.5864 64.8441 46.3834 65.6119 45.9803 66.2766C45.5771 66.9413 44.991 67.4746 44.2928 67.8119C46.299 68.585 47.5357 69.7539 47.5357 72.0916C47.5357 75.276 44.9615 76.8682 41.0498 76.8682H32.8051L32.8142 59.5195ZM40.0421 66.551C41.7186 66.551 42.7904 65.9988 42.7904 64.7103C42.7904 63.5599 41.8743 62.8696 40.2986 62.8696H36.5244V66.551H40.0421ZM41.0498 73.5549C42.7354 73.5549 43.7523 72.9567 43.7523 71.7142V71.659C43.7523 70.4994 42.882 69.8183 40.9307 69.8183H36.5244V73.647L41.0498 73.5549ZM0 84.3047L0.302309 83.955C0.504489 84.1525 0.744073 84.3072 1.00686 84.4099C1.26965 84.5127 1.5503 84.5614 1.83217 84.5532C2.41847 84.5532 2.81239 84.2495 2.81239 83.8353C2.81239 83.4396 2.59252 83.2187 1.66728 83.0254C0.74203 82.8321 0.201539 82.4916 0.201539 81.7921C0.216226 81.6192 0.265542 81.451 0.346528 81.2977C0.427514 81.1444 0.538499 81.0091 0.672823 80.8999C0.807147 80.7907 0.96204 80.71 1.12821 80.6624C1.29437 80.6149 1.46838 80.6016 1.63979 80.6233C2.19901 80.6058 2.74565 80.7921 3.17882 81.1479L2.88567 81.516C2.53732 81.188 2.08047 81.0012 1.60315 80.9914C1.03518 80.9914 0.687065 81.2951 0.687065 81.6817C0.687065 82.0866 0.916086 82.3167 1.87798 82.5192C2.83987 82.7217 3.29791 83.0714 3.29791 83.7249C3.29791 84.4612 2.67497 84.9398 1.80469 84.9398C1.14442 84.9678 0.49857 84.7405 0 84.3047ZM4.18652 84.093V82.1879H3.73763V81.7737H4.18652V80.8534H4.66288V81.7737H5.6889V82.1879H4.66288V84.0286C4.66288 84.4152 4.88274 84.5532 5.21253 84.5532C5.37501 84.5563 5.53565 84.5183 5.67974 84.4428V84.8477C5.50277 84.9439 5.30371 84.9915 5.1026 84.9858C4.98095 85.0016 4.8573 84.9896 4.74088 84.9508C4.62447 84.9119 4.51828 84.8472 4.43022 84.7614C4.34217 84.6756 4.27453 84.5709 4.23233 84.4552C4.19013 84.3395 4.17447 84.2157 4.18652 84.093ZM6.1103 84.0102C6.1103 83.3475 6.66911 82.9886 7.49359 82.9886C7.8284 82.9846 8.16191 83.0311 8.48296 83.1267V83.0162C8.48296 82.4456 8.12569 82.1511 7.56687 82.1511C7.22642 82.156 6.89142 82.2378 6.58666 82.3904L6.41261 81.9946C6.78186 81.8185 7.18558 81.7273 7.59436 81.7277C7.97448 81.7035 8.34903 81.829 8.6387 82.0774C8.86772 82.3269 8.98681 82.6591 8.96849 82.9978V84.9305H8.48296V84.452C8.34599 84.6266 8.17028 84.7666 7.96988 84.8609C7.76947 84.9552 7.5499 85.0011 7.32869 84.995C6.71491 84.995 6.1103 84.6729 6.1103 84.0102ZM8.49212 83.7525V83.4488C8.19494 83.3588 7.88641 83.3123 7.57604 83.3107C6.97142 83.3107 6.65995 83.5684 6.65995 83.9642C6.65995 84.3691 7.03554 84.5992 7.47527 84.5992C7.7198 84.6129 7.96047 84.5333 8.14904 84.3763C8.33761 84.2193 8.46015 83.9965 8.49212 83.7525ZM9.7838 81.7737H10.2693V82.6021C10.3625 82.329 10.5395 82.0927 10.775 81.9273C11.0104 81.7619 11.2921 81.6759 11.5793 81.6817V82.1879C11.3973 82.1863 11.217 82.224 11.0507 82.2984C10.8844 82.3728 10.7359 82.4822 10.6152 82.6191C10.4945 82.7561 10.4045 82.9174 10.3511 83.0923C10.2978 83.2672 10.2824 83.4515 10.306 83.6329V84.8937H9.82045L9.7838 81.7737ZM12.2939 84.093V82.1879H11.845V81.7737H12.2939V80.8534H12.8252V81.7737H13.8512V82.1879H12.8252V84.0286C12.8252 84.4152 13.0451 84.5532 13.3657 84.5532C13.5282 84.5563 13.6888 84.5183 13.8329 84.4428V84.8477C13.6559 84.9439 13.4569 84.9915 13.2558 84.9858C13.1307 85.0095 13.0018 85.0035 12.8795 84.9682C12.7572 84.9329 12.6447 84.8693 12.5512 84.7825C12.4578 84.6958 12.3858 84.5882 12.3411 84.4685C12.2964 84.3487 12.2802 84.2202 12.2939 84.093ZM15.8941 80.6601H16.4346L17.6805 84.2127L18.8805 80.6417H19.2836L20.4837 84.2127L21.7387 80.6601H22.2517L20.6944 84.9582H20.273L19.0729 81.4884L17.8728 84.9582H17.4606L15.8941 80.6601ZM22.9022 80.5681H23.4518V81.0835H22.9022V80.5681ZM22.9022 81.7737H23.3877V84.9305H22.9022V81.7737ZM24.5053 84.093V82.1879H24.0564V81.7737H24.5053V80.8534H24.9817V81.7737H26.0077V82.1879H24.9817V84.0286C24.9817 84.4152 25.2015 84.5532 25.5313 84.5532C25.6935 84.5541 25.8538 84.5164 25.9985 84.4428V84.8477C25.8182 84.9438 25.6163 84.9914 25.4122 84.9858C25.2909 85.0019 25.1676 84.9901 25.0515 84.9512C24.9354 84.9123 24.8297 84.8474 24.7423 84.7614C24.6549 84.6753 24.5881 84.5705 24.5471 84.4547C24.506 84.3389 24.4917 84.2152 24.5053 84.093ZM26.6673 80.476H27.1528V82.3167C27.2643 82.1224 27.4264 81.9623 27.6217 81.8536C27.817 81.745 28.0382 81.6919 28.2613 81.7001C28.4281 81.689 28.5954 81.7141 28.7517 81.7738C28.908 81.8335 29.0497 81.9263 29.1671 82.046C29.2844 82.1656 29.3748 82.3093 29.4319 82.4672C29.489 82.6251 29.5115 82.7935 29.498 82.961V84.9213H29.0125V83.0806C29.0237 82.9569 29.0078 82.8323 28.9657 82.7155C28.9237 82.5987 28.8565 82.4926 28.7691 82.4048C28.6817 82.3169 28.5761 82.2495 28.4598 82.2072C28.3436 82.165 28.2195 82.149 28.0964 82.1603C27.9651 82.1519 27.8336 82.172 27.7108 82.2193C27.5879 82.2665 27.4767 82.3398 27.3845 82.4341C27.2924 82.5284 27.2216 82.6415 27.1768 82.7658C27.1321 82.8901 27.1145 83.0226 27.1253 83.1543V84.995H26.6398L26.6673 80.476ZM33.2539 81.1019H31.7882V80.6601H35.2235V81.1019H33.7578V84.9305H33.2539V81.1019ZM35.8831 81.7737H36.3595V82.6021C36.4555 82.329 36.6346 82.0933 36.8713 81.9281C37.108 81.7629 37.3905 81.6767 37.6786 81.6817V82.1879C37.4963 82.1865 37.3157 82.2243 37.149 82.2986C36.9823 82.3729 36.8333 82.4821 36.7119 82.6188C36.5905 82.7556 36.4996 82.9167 36.4451 83.0916C36.3907 83.2665 36.374 83.451 36.3961 83.6329V84.8937H35.9197L35.8831 81.7737ZM38.1733 83.7525V81.7737H38.6497V83.6144C38.64 83.7378 38.6571 83.8617 38.6997 83.9778C38.7424 84.0939 38.8095 84.1993 38.8966 84.2867C38.9837 84.3742 39.0886 84.4417 39.2041 84.4845C39.3196 84.5273 39.443 84.5445 39.5658 84.5348C39.697 84.5432 39.8286 84.5231 39.9514 84.4758C40.0742 84.4286 40.1855 84.3553 40.2776 84.261C40.3698 84.1667 40.4406 84.0535 40.4853 83.9293C40.53 83.805 40.5476 83.6725 40.5368 83.5408V81.7001H41.0132V84.8569H40.5368V84.3047C40.4238 84.4977 40.2614 84.6567 40.0664 84.7652C39.8715 84.8736 39.6511 84.9276 39.4284 84.9213C39.2681 84.9341 39.1069 84.9133 38.955 84.8603C38.8031 84.8072 38.6637 84.7232 38.5458 84.6133C38.4279 84.5035 38.3339 84.3703 38.2698 84.2221C38.2057 84.074 38.1728 83.9141 38.1733 83.7525ZM41.6178 84.5256L41.856 84.1943C42.1793 84.4383 42.5695 84.5765 42.9736 84.59C43.3675 84.59 43.6424 84.3968 43.6424 84.093C43.6424 83.7709 43.2668 83.6513 42.8362 83.5316C42.4056 83.412 41.7735 83.2279 41.7735 82.6113C41.7735 82.0682 42.2316 81.6909 42.8728 81.6909C43.2851 81.7001 43.6872 81.8197 44.0363 82.0406L43.8164 82.3904C43.5419 82.2122 43.2265 82.1077 42.9003 82.0867C42.5247 82.0867 42.2774 82.2799 42.2774 82.5468C42.2774 82.8505 42.6805 82.961 43.111 83.0898C43.5416 83.2187 44.1462 83.4304 44.1462 84.0102C44.1462 84.6084 43.6424 84.9305 43.0011 84.9305C42.5083 84.9513 42.0224 84.809 41.6178 84.5256ZM44.9798 84.093V82.1879H44.5218V81.7737H44.9798V80.8534H45.4562V81.7737H46.4822V82.1879H45.4562V84.0286C45.4562 84.4152 45.6761 84.5532 45.9967 84.5532C46.1616 84.5551 46.3256 84.5164 46.4731 84.4428V84.8477C46.2923 84.9427 46.0907 84.9902 45.8868 84.9858C45.7655 85.0019 45.6421 84.9901 45.526 84.9512C45.41 84.9123 45.3042 84.8474 45.2168 84.7614C45.1294 84.6753 45.0627 84.5705 45.0216 84.4547C44.9806 84.3389 44.9663 84.2152 44.9798 84.093ZM47.1418 84.6729L47.3342 84.452C47.4509 84.5623 47.6045 84.6246 47.7647 84.6268C47.893 84.6268 47.9754 84.5716 47.9754 84.4888C47.9754 84.406 47.9205 84.3599 47.6823 84.2955C47.4441 84.2311 47.1968 84.139 47.1968 83.8537C47.2001 83.7907 47.2162 83.7291 47.2443 83.6726C47.2723 83.6161 47.3116 83.566 47.3597 83.5255C47.4078 83.4849 47.4637 83.4547 47.524 83.4368C47.5842 83.4188 47.6474 83.4135 47.7098 83.4212C47.9058 83.4175 48.0969 83.4826 48.2503 83.6052L48.0854 83.8445C47.9748 83.7576 47.8407 83.7063 47.7006 83.6973C47.5815 83.6973 47.5174 83.7617 47.5174 83.8261C47.5174 83.9182 47.5815 83.955 47.8289 84.0194C48.0762 84.0838 48.2869 84.2035 48.2869 84.452C48.2869 84.7373 48.0671 84.9029 47.7556 84.9029C47.5298 84.9049 47.3112 84.8229 47.1418 84.6729ZM48.5526 83.458H48.8915L49.2763 84.0746L49.661 83.458H50V84.9213H49.6885V84.001L49.2763 84.6268L48.8732 84.0102V84.9305H48.5526V83.458Z" fill="white"/>
</g>
<defs>
<clipPath id="clip0_352_4718">
<rect width="50" height="85" fill="white"/>
</clipPath>
</defs>
</svg>
